<mxfile host="app.diagrams.net" agent="Mozilla/5.0 (X11; Linux x86_64) AppleWebKit/537.36 (KHTML, like Gecko) Chrome/131.0.0.0 Safari/537.36" version="25.0.3">
  <diagram name="Page-1" id="PuFN-wMOv0jWiG4jprAx">
    <mxGraphModel dx="1183" dy="687" grid="1" gridSize="10" guides="1" tooltips="1" connect="1" arrows="1" fold="1" page="1" pageScale="1" pageWidth="715" pageHeight="1190" background="none" math="0" shadow="0">
      <root>
        <mxCell id="0" />
        <mxCell id="DKlUDa0g7rmCu-vv5rfz-316" value="Spellbook borders" style="locked=1;" parent="0" visible="0" />
        <mxCell id="DKlUDa0g7rmCu-vv5rfz-317" value="" style="rounded=1;fontFamily=Helvetica;fontSize=11;fontColor=default;labelBackgroundColor=none;fillColor=#FCF4C4;strokeColor=#667788;opacity=30;glass=0;shadow=0;align=center;verticalAlign=middle;gradientColor=none;strokeWidth=2;" parent="DKlUDa0g7rmCu-vv5rfz-316" vertex="1">
          <mxGeometry x="10" y="50" width="980" height="180" as="geometry" />
        </mxCell>
        <mxCell id="DKlUDa0g7rmCu-vv5rfz-318" value="" style="rounded=1;fontFamily=Helvetica;fontSize=11;fontColor=default;labelBackgroundColor=none;fillColor=#667788;strokeColor=#667788;opacity=30;glass=0;shadow=0;align=center;verticalAlign=middle;gradientColor=none;strokeWidth=2;" parent="DKlUDa0g7rmCu-vv5rfz-316" vertex="1">
          <mxGeometry x="410" y="250" width="980" height="180" as="geometry" />
        </mxCell>
        <mxCell id="DKlUDa0g7rmCu-vv5rfz-319" value="" style="rounded=1;fontFamily=Helvetica;fontSize=11;fontColor=default;labelBackgroundColor=none;fillColor=#FCF4C4;strokeColor=#667788;opacity=30;glass=0;shadow=0;align=center;verticalAlign=middle;gradientColor=none;strokeWidth=2;" parent="DKlUDa0g7rmCu-vv5rfz-316" vertex="1">
          <mxGeometry x="10" y="440" width="1380" height="190" as="geometry" />
        </mxCell>
        <mxCell id="DKlUDa0g7rmCu-vv5rfz-320" value="" style="rounded=1;fontFamily=Helvetica;fontSize=11;fontColor=default;labelBackgroundColor=none;fillColor=#667788;strokeColor=#667788;opacity=30;glass=0;shadow=0;align=center;verticalAlign=middle;gradientColor=none;strokeWidth=2;" parent="DKlUDa0g7rmCu-vv5rfz-316" vertex="1">
          <mxGeometry x="210" y="650" width="980" height="180" as="geometry" />
        </mxCell>
        <mxCell id="DKlUDa0g7rmCu-vv5rfz-321" value="" style="rounded=1;fontFamily=Helvetica;fontSize=11;fontColor=default;labelBackgroundColor=none;fillColor=#FCF4C4;strokeColor=#667788;opacity=30;glass=0;shadow=0;align=center;verticalAlign=middle;gradientColor=none;strokeWidth=2;" parent="DKlUDa0g7rmCu-vv5rfz-316" vertex="1">
          <mxGeometry x="10" y="840" width="1180" height="130" as="geometry" />
        </mxCell>
        <mxCell id="DKlUDa0g7rmCu-vv5rfz-322" value="" style="rounded=1;fontFamily=Helvetica;fontSize=11;fontColor=default;labelBackgroundColor=none;fillColor=#667788;strokeColor=#667788;glass=0;perimeterSpacing=0;shadow=0;opacity=30;gradientColor=none;strokeWidth=2;" parent="DKlUDa0g7rmCu-vv5rfz-316" vertex="1">
          <mxGeometry x="410" y="990" width="780" height="180" as="geometry" />
        </mxCell>
        <mxCell id="4LNg5v-IOajOxHjOTWhF-1" value="Animation" style="text;align=center;verticalAlign=middle;whiteSpace=wrap;rounded=0;fontStyle=1;fontSize=16;fontFamily=Georgia;fontColor=#667788;strokeColor=none;" parent="DKlUDa0g7rmCu-vv5rfz-316" vertex="1">
          <mxGeometry x="410" y="390" width="140" height="40" as="geometry" />
        </mxCell>
        <mxCell id="4LNg5v-IOajOxHjOTWhF-2" value="Synthetic Creation" style="text;align=center;verticalAlign=middle;whiteSpace=wrap;rounded=0;fontStyle=1;fontSize=16;fontFamily=Georgia;fontColor=#667788;strokeColor=none;" parent="DKlUDa0g7rmCu-vv5rfz-316" vertex="1">
          <mxGeometry x="10" y="590" width="140" height="40" as="geometry" />
        </mxCell>
        <mxCell id="4LNg5v-IOajOxHjOTWhF-3" value="Transcendental Necromancy" style="text;align=center;verticalAlign=middle;whiteSpace=wrap;rounded=0;fontStyle=1;fontSize=16;fontFamily=Georgia;fontColor=#667788;strokeColor=none;" parent="DKlUDa0g7rmCu-vv5rfz-316" vertex="1">
          <mxGeometry x="210" y="790" width="140" height="40" as="geometry" />
        </mxCell>
        <mxCell id="4LNg5v-IOajOxHjOTWhF-4" value="Corruption" style="text;align=center;verticalAlign=middle;whiteSpace=wrap;rounded=0;fontStyle=1;fontSize=16;fontFamily=Georgia;fontColor=#667788;strokeColor=none;" parent="DKlUDa0g7rmCu-vv5rfz-316" vertex="1">
          <mxGeometry x="10" y="190" width="140" height="40" as="geometry" />
        </mxCell>
        <mxCell id="4LNg5v-IOajOxHjOTWhF-5" value="Blood Magic" style="text;align=center;verticalAlign=middle;whiteSpace=wrap;rounded=0;fontStyle=1;fontSize=16;fontFamily=Georgia;fontColor=#667788;strokeColor=none;" parent="DKlUDa0g7rmCu-vv5rfz-316" vertex="1">
          <mxGeometry x="10" y="930" width="140" height="40" as="geometry" />
        </mxCell>
        <mxCell id="4LNg5v-IOajOxHjOTWhF-6" value="Anabasis" style="text;align=center;verticalAlign=middle;whiteSpace=wrap;rounded=0;fontStyle=1;fontSize=16;fontFamily=Georgia;fontColor=#667788;strokeColor=none;" parent="DKlUDa0g7rmCu-vv5rfz-316" vertex="1">
          <mxGeometry x="410" y="1130" width="140" height="40" as="geometry" />
        </mxCell>
        <mxCell id="DKlUDa0g7rmCu-vv5rfz-14" value="Shapes and Lines" style="" parent="0" />
        <mxCell id="DKlUDa0g7rmCu-vv5rfz-31" value="Compost" style="rounded=1;strokeWidth=2;strokeColor=#667788;textShadow=0;labelBackgroundColor=none;whiteSpace=wrap;fontSize=15;fontFamily=Georgia;" parent="DKlUDa0g7rmCu-vv5rfz-14" vertex="1">
          <mxGeometry x="20" y="60" width="160" height="40" as="geometry" />
        </mxCell>
        <mxCell id="CoPnodNDMeY2YXLun1O6-16" style="edgeStyle=orthogonalEdgeStyle;rounded=1;orthogonalLoop=1;jettySize=auto;html=1;exitX=1;exitY=0.5;exitDx=0;exitDy=0;entryX=0;entryY=0.5;entryDx=0;entryDy=0;fontFamily=Helvetica;fontSize=15;fontColor=default;labelBackgroundColor=none;curved=0;strokeWidth=2;strokeColor=#667788;endArrow=none;endFill=0;jumpStyle=arc;" edge="1" parent="DKlUDa0g7rmCu-vv5rfz-14" source="CoPnodNDMeY2YXLun1O6-2" target="CoPnodNDMeY2YXLun1O6-4">
          <mxGeometry relative="1" as="geometry" />
        </mxCell>
        <mxCell id="CoPnodNDMeY2YXLun1O6-17" style="edgeStyle=orthogonalEdgeStyle;shape=connector;curved=0;rounded=1;orthogonalLoop=1;jettySize=auto;html=1;exitX=1;exitY=0.5;exitDx=0;exitDy=0;entryX=0;entryY=0.5;entryDx=0;entryDy=0;strokeColor=#667788;strokeWidth=2;align=center;verticalAlign=middle;fontFamily=Helvetica;fontSize=15;fontColor=default;labelBackgroundColor=none;endArrow=none;endFill=0;jumpStyle=arc;" edge="1" parent="DKlUDa0g7rmCu-vv5rfz-14" source="CoPnodNDMeY2YXLun1O6-2" target="CoPnodNDMeY2YXLun1O6-5">
          <mxGeometry relative="1" as="geometry">
            <Array as="points">
              <mxPoint x="200" y="140" />
              <mxPoint x="200" y="80" />
            </Array>
          </mxGeometry>
        </mxCell>
        <mxCell id="CoPnodNDMeY2YXLun1O6-18" style="edgeStyle=orthogonalEdgeStyle;shape=connector;curved=0;rounded=1;orthogonalLoop=1;jettySize=auto;html=1;exitX=1;exitY=0.5;exitDx=0;exitDy=0;entryX=0;entryY=0.5;entryDx=0;entryDy=0;strokeColor=#667788;strokeWidth=2;align=center;verticalAlign=middle;fontFamily=Helvetica;fontSize=15;fontColor=default;labelBackgroundColor=none;endArrow=none;endFill=0;jumpStyle=arc;" edge="1" parent="DKlUDa0g7rmCu-vv5rfz-14" source="CoPnodNDMeY2YXLun1O6-2" target="CoPnodNDMeY2YXLun1O6-6">
          <mxGeometry relative="1" as="geometry">
            <Array as="points">
              <mxPoint x="400" y="140" />
              <mxPoint x="400" y="110" />
            </Array>
          </mxGeometry>
        </mxCell>
        <mxCell id="CoPnodNDMeY2YXLun1O6-19" style="edgeStyle=orthogonalEdgeStyle;shape=connector;curved=0;rounded=1;orthogonalLoop=1;jettySize=auto;html=1;exitX=1;exitY=0.5;exitDx=0;exitDy=0;entryX=0;entryY=0.5;entryDx=0;entryDy=0;strokeColor=#667788;strokeWidth=2;align=center;verticalAlign=middle;fontFamily=Helvetica;fontSize=15;fontColor=default;labelBackgroundColor=none;endArrow=none;endFill=0;jumpStyle=arc;" edge="1" parent="DKlUDa0g7rmCu-vv5rfz-14" source="CoPnodNDMeY2YXLun1O6-2" target="CoPnodNDMeY2YXLun1O6-7">
          <mxGeometry relative="1" as="geometry">
            <Array as="points">
              <mxPoint x="400" y="140" />
              <mxPoint x="400" y="170" />
            </Array>
          </mxGeometry>
        </mxCell>
        <mxCell id="CoPnodNDMeY2YXLun1O6-2" value="Eagle&#39;s Cry" style="rounded=1;whiteSpace=wrap;strokeWidth=2;strokeColor=#667788;textShadow=0;labelBackgroundColor=none;align=center;verticalAlign=middle;fontFamily=Georgia;fontSize=15;fontColor=default;fillColor=default;" vertex="1" parent="DKlUDa0g7rmCu-vv5rfz-14">
          <mxGeometry x="20" y="120" width="160" height="40" as="geometry" />
        </mxCell>
        <mxCell id="CoPnodNDMeY2YXLun1O6-24" style="edgeStyle=orthogonalEdgeStyle;shape=connector;curved=0;rounded=1;orthogonalLoop=1;jettySize=auto;html=1;exitX=1;exitY=0.5;exitDx=0;exitDy=0;entryX=0;entryY=0.5;entryDx=0;entryDy=0;strokeColor=#667788;strokeWidth=2;align=center;verticalAlign=middle;fontFamily=Helvetica;fontSize=15;fontColor=default;labelBackgroundColor=none;endArrow=none;endFill=0;dashed=1;jumpStyle=arc;" edge="1" parent="DKlUDa0g7rmCu-vv5rfz-14" source="CoPnodNDMeY2YXLun1O6-4" target="CoPnodNDMeY2YXLun1O6-10">
          <mxGeometry relative="1" as="geometry">
            <Array as="points">
              <mxPoint x="600" y="200" />
              <mxPoint x="600" y="170" />
            </Array>
          </mxGeometry>
        </mxCell>
        <mxCell id="CoPnodNDMeY2YXLun1O6-25" style="edgeStyle=orthogonalEdgeStyle;shape=connector;curved=0;rounded=1;orthogonalLoop=1;jettySize=auto;html=1;exitX=1;exitY=0.75;exitDx=0;exitDy=0;entryX=0;entryY=0.75;entryDx=0;entryDy=0;strokeColor=#667788;strokeWidth=2;align=center;verticalAlign=middle;fontFamily=Helvetica;fontSize=15;fontColor=default;labelBackgroundColor=none;endArrow=classic;endFill=1;dashed=1;jumpStyle=arc;" edge="1" parent="DKlUDa0g7rmCu-vv5rfz-14" source="CoPnodNDMeY2YXLun1O6-4" target="CoPnodNDMeY2YXLun1O6-8">
          <mxGeometry relative="1" as="geometry" />
        </mxCell>
        <mxCell id="CoPnodNDMeY2YXLun1O6-4" value="Carryon Call" style="rounded=1;whiteSpace=wrap;strokeWidth=2;strokeColor=#667788;textShadow=0;labelBackgroundColor=none;fontSize=15;fontFamily=Georgia;" vertex="1" parent="DKlUDa0g7rmCu-vv5rfz-14">
          <mxGeometry x="220" y="180" width="160" height="40" as="geometry" />
        </mxCell>
        <mxCell id="CoPnodNDMeY2YXLun1O6-20" style="edgeStyle=orthogonalEdgeStyle;shape=connector;curved=0;rounded=1;orthogonalLoop=1;jettySize=auto;html=1;exitX=1;exitY=0.25;exitDx=0;exitDy=0;entryX=0;entryY=0.25;entryDx=0;entryDy=0;strokeColor=#667788;strokeWidth=2;align=center;verticalAlign=middle;fontFamily=Helvetica;fontSize=15;fontColor=default;labelBackgroundColor=none;endArrow=none;endFill=0;jumpStyle=arc;" edge="1" parent="DKlUDa0g7rmCu-vv5rfz-14" source="CoPnodNDMeY2YXLun1O6-5" target="CoPnodNDMeY2YXLun1O6-12">
          <mxGeometry relative="1" as="geometry" />
        </mxCell>
        <mxCell id="CoPnodNDMeY2YXLun1O6-22" style="edgeStyle=orthogonalEdgeStyle;shape=connector;curved=0;rounded=1;orthogonalLoop=1;jettySize=auto;html=1;exitX=1;exitY=0.5;exitDx=0;exitDy=0;entryX=0;entryY=0.5;entryDx=0;entryDy=0;strokeColor=#667788;strokeWidth=2;align=center;verticalAlign=middle;fontFamily=Helvetica;fontSize=15;fontColor=default;labelBackgroundColor=none;endArrow=none;endFill=0;dashed=1;jumpStyle=arc;" edge="1" parent="DKlUDa0g7rmCu-vv5rfz-14" source="CoPnodNDMeY2YXLun1O6-5" target="CoPnodNDMeY2YXLun1O6-9">
          <mxGeometry relative="1" as="geometry">
            <Array as="points">
              <mxPoint x="600" y="80" />
              <mxPoint x="600" y="110" />
            </Array>
          </mxGeometry>
        </mxCell>
        <mxCell id="CoPnodNDMeY2YXLun1O6-5" value="Deadfall" style="rounded=1;whiteSpace=wrap;strokeWidth=2;strokeColor=#667788;textShadow=0;labelBackgroundColor=none;fontSize=15;fontFamily=Georgia;" vertex="1" parent="DKlUDa0g7rmCu-vv5rfz-14">
          <mxGeometry x="220" y="60" width="160" height="40" as="geometry" />
        </mxCell>
        <mxCell id="CoPnodNDMeY2YXLun1O6-21" style="edgeStyle=orthogonalEdgeStyle;shape=connector;curved=0;rounded=1;orthogonalLoop=1;jettySize=auto;html=1;exitX=1;exitY=0.5;exitDx=0;exitDy=0;entryX=0;entryY=0.5;entryDx=0;entryDy=0;strokeColor=#667788;strokeWidth=2;align=center;verticalAlign=middle;fontFamily=Helvetica;fontSize=15;fontColor=default;labelBackgroundColor=none;endArrow=classic;endFill=1;dashed=1;jumpStyle=arc;" edge="1" parent="DKlUDa0g7rmCu-vv5rfz-14" source="CoPnodNDMeY2YXLun1O6-6" target="CoPnodNDMeY2YXLun1O6-9">
          <mxGeometry relative="1" as="geometry" />
        </mxCell>
        <mxCell id="CoPnodNDMeY2YXLun1O6-23" style="edgeStyle=orthogonalEdgeStyle;shape=connector;curved=0;rounded=1;orthogonalLoop=1;jettySize=auto;html=1;exitX=1;exitY=0.5;exitDx=0;exitDy=0;entryX=0;entryY=0.5;entryDx=0;entryDy=0;strokeColor=#667788;strokeWidth=2;align=center;verticalAlign=middle;fontFamily=Helvetica;fontSize=15;fontColor=default;labelBackgroundColor=none;endArrow=classic;endFill=1;dashed=1;jumpStyle=arc;" edge="1" parent="DKlUDa0g7rmCu-vv5rfz-14" source="CoPnodNDMeY2YXLun1O6-6" target="CoPnodNDMeY2YXLun1O6-10">
          <mxGeometry relative="1" as="geometry">
            <Array as="points">
              <mxPoint x="590" y="110" />
              <mxPoint x="590" y="170" />
            </Array>
          </mxGeometry>
        </mxCell>
        <mxCell id="CoPnodNDMeY2YXLun1O6-6" value="Harawep&#39;s Bonds " style="rounded=1;whiteSpace=wrap;strokeWidth=2;strokeColor=#667788;textShadow=0;labelBackgroundColor=none;fontSize=15;fontFamily=Georgia;" vertex="1" parent="DKlUDa0g7rmCu-vv5rfz-14">
          <mxGeometry x="420" y="90" width="160" height="40" as="geometry" />
        </mxCell>
        <mxCell id="CoPnodNDMeY2YXLun1O6-26" style="edgeStyle=orthogonalEdgeStyle;shape=connector;curved=0;rounded=1;orthogonalLoop=1;jettySize=auto;html=1;exitX=1;exitY=0.75;exitDx=0;exitDy=0;entryX=0;entryY=0.75;entryDx=0;entryDy=0;strokeColor=#667788;strokeWidth=2;align=center;verticalAlign=middle;fontFamily=Helvetica;fontSize=15;fontColor=default;labelBackgroundColor=none;endArrow=none;endFill=0;dashed=1;jumpStyle=arc;" edge="1" parent="DKlUDa0g7rmCu-vv5rfz-14" source="CoPnodNDMeY2YXLun1O6-7" target="CoPnodNDMeY2YXLun1O6-8">
          <mxGeometry relative="1" as="geometry">
            <Array as="points">
              <mxPoint x="590" y="180" />
              <mxPoint x="590" y="210" />
            </Array>
          </mxGeometry>
        </mxCell>
        <mxCell id="CoPnodNDMeY2YXLun1O6-7" value="Stampede" style="rounded=1;whiteSpace=wrap;strokeWidth=2;strokeColor=#667788;textShadow=0;labelBackgroundColor=none;fontSize=15;fontFamily=Georgia;" vertex="1" parent="DKlUDa0g7rmCu-vv5rfz-14">
          <mxGeometry x="420" y="150" width="160" height="40" as="geometry" />
        </mxCell>
        <mxCell id="CoPnodNDMeY2YXLun1O6-33" style="edgeStyle=orthogonalEdgeStyle;shape=connector;curved=0;rounded=1;orthogonalLoop=1;jettySize=auto;html=1;exitX=1;exitY=0.5;exitDx=0;exitDy=0;entryX=0;entryY=0.5;entryDx=0;entryDy=0;strokeColor=#667788;strokeWidth=2;align=center;verticalAlign=middle;fontFamily=Helvetica;fontSize=15;fontColor=default;labelBackgroundColor=none;endArrow=none;endFill=0;jumpStyle=arc;" edge="1" parent="DKlUDa0g7rmCu-vv5rfz-14" source="CoPnodNDMeY2YXLun1O6-8" target="CoPnodNDMeY2YXLun1O6-13">
          <mxGeometry relative="1" as="geometry" />
        </mxCell>
        <mxCell id="CoPnodNDMeY2YXLun1O6-8" value="Devitalize" style="rounded=1;whiteSpace=wrap;strokeWidth=2;strokeColor=#667788;textShadow=0;labelBackgroundColor=none;fontSize=15;fontFamily=Georgia;" vertex="1" parent="DKlUDa0g7rmCu-vv5rfz-14">
          <mxGeometry x="820" y="180" width="160" height="40" as="geometry" />
        </mxCell>
        <mxCell id="CoPnodNDMeY2YXLun1O6-29" style="edgeStyle=orthogonalEdgeStyle;shape=connector;curved=0;rounded=1;orthogonalLoop=1;jettySize=auto;html=1;exitX=1;exitY=0.5;exitDx=0;exitDy=0;entryX=0;entryY=0.5;entryDx=0;entryDy=0;strokeColor=#667788;strokeWidth=2;align=center;verticalAlign=middle;fontFamily=Helvetica;fontSize=15;fontColor=default;labelBackgroundColor=none;endArrow=none;endFill=0;dashed=1;jumpStyle=arc;" edge="1" parent="DKlUDa0g7rmCu-vv5rfz-14" source="CoPnodNDMeY2YXLun1O6-9" target="CoPnodNDMeY2YXLun1O6-15">
          <mxGeometry relative="1" as="geometry">
            <Array as="points">
              <mxPoint x="1200" y="110" />
              <mxPoint x="1200" y="80" />
            </Array>
          </mxGeometry>
        </mxCell>
        <mxCell id="CoPnodNDMeY2YXLun1O6-9" value="Devolve" style="rounded=1;whiteSpace=wrap;strokeWidth=2;strokeColor=#667788;textShadow=0;labelBackgroundColor=none;fontSize=15;fontFamily=Georgia;fontStyle=1" vertex="1" parent="DKlUDa0g7rmCu-vv5rfz-14">
          <mxGeometry x="620" y="90" width="160" height="40" as="geometry" />
        </mxCell>
        <mxCell id="CoPnodNDMeY2YXLun1O6-31" style="edgeStyle=orthogonalEdgeStyle;shape=connector;curved=0;rounded=1;orthogonalLoop=1;jettySize=auto;html=1;exitX=1;exitY=0.5;exitDx=0;exitDy=0;entryX=0;entryY=0.5;entryDx=0;entryDy=0;strokeColor=#667788;strokeWidth=2;align=center;verticalAlign=middle;fontFamily=Helvetica;fontSize=15;fontColor=default;labelBackgroundColor=none;endArrow=none;endFill=0;jumpStyle=arc;" edge="1" parent="DKlUDa0g7rmCu-vv5rfz-14" source="CoPnodNDMeY2YXLun1O6-10" target="CoPnodNDMeY2YXLun1O6-27">
          <mxGeometry relative="1" as="geometry">
            <Array as="points">
              <mxPoint x="1190" y="170" />
              <mxPoint x="1190" y="140" />
            </Array>
          </mxGeometry>
        </mxCell>
        <mxCell id="CoPnodNDMeY2YXLun1O6-10" value="Swarm" style="rounded=1;whiteSpace=wrap;strokeWidth=2;strokeColor=#667788;textShadow=0;labelBackgroundColor=none;fontSize=15;fontFamily=Georgia;" vertex="1" parent="DKlUDa0g7rmCu-vv5rfz-14">
          <mxGeometry x="620" y="150" width="160" height="40" as="geometry" />
        </mxCell>
        <mxCell id="CoPnodNDMeY2YXLun1O6-28" style="edgeStyle=orthogonalEdgeStyle;shape=connector;curved=0;rounded=1;orthogonalLoop=1;jettySize=auto;html=1;exitX=1;exitY=0.5;exitDx=0;exitDy=0;entryX=0;entryY=0.5;entryDx=0;entryDy=0;strokeColor=#667788;strokeWidth=2;align=center;verticalAlign=middle;fontFamily=Helvetica;fontSize=15;fontColor=default;labelBackgroundColor=none;endArrow=classic;endFill=1;dashed=1;jumpStyle=arc;" edge="1" parent="DKlUDa0g7rmCu-vv5rfz-14" source="CoPnodNDMeY2YXLun1O6-12" target="CoPnodNDMeY2YXLun1O6-15">
          <mxGeometry relative="1" as="geometry" />
        </mxCell>
        <mxCell id="CoPnodNDMeY2YXLun1O6-30" style="edgeStyle=orthogonalEdgeStyle;shape=connector;curved=0;rounded=1;orthogonalLoop=1;jettySize=auto;html=1;exitX=1;exitY=0.75;exitDx=0;exitDy=0;entryX=0;entryY=0.5;entryDx=0;entryDy=0;strokeColor=#667788;strokeWidth=2;align=center;verticalAlign=middle;fontFamily=Helvetica;fontSize=15;fontColor=default;labelBackgroundColor=none;endArrow=none;endFill=0;jumpStyle=arc;" edge="1" parent="DKlUDa0g7rmCu-vv5rfz-14" source="CoPnodNDMeY2YXLun1O6-12" target="CoPnodNDMeY2YXLun1O6-27">
          <mxGeometry relative="1" as="geometry">
            <Array as="points">
              <mxPoint x="1190" y="90" />
              <mxPoint x="1190" y="140" />
            </Array>
          </mxGeometry>
        </mxCell>
        <mxCell id="CoPnodNDMeY2YXLun1O6-32" style="edgeStyle=orthogonalEdgeStyle;shape=connector;curved=0;rounded=1;orthogonalLoop=1;jettySize=auto;html=1;exitX=1;exitY=0.75;exitDx=0;exitDy=0;entryX=0;entryY=0.5;entryDx=0;entryDy=0;strokeColor=#667788;strokeWidth=2;align=center;verticalAlign=middle;fontFamily=Helvetica;fontSize=15;fontColor=default;labelBackgroundColor=none;endArrow=none;endFill=0;jumpStyle=arc;" edge="1" parent="DKlUDa0g7rmCu-vv5rfz-14" source="CoPnodNDMeY2YXLun1O6-12">
          <mxGeometry relative="1" as="geometry">
            <mxPoint x="1200" y="90" as="sourcePoint" />
            <mxPoint x="1240" y="199.9999999999999" as="targetPoint" />
            <Array as="points">
              <mxPoint x="1210" y="90" />
              <mxPoint x="1210" y="200" />
            </Array>
          </mxGeometry>
        </mxCell>
        <mxCell id="CoPnodNDMeY2YXLun1O6-12" value="Awaken Forest" style="rounded=1;whiteSpace=wrap;strokeWidth=2;strokeColor=#667788;textShadow=0;labelBackgroundColor=none;fontSize=15;fontFamily=Georgia;fontStyle=1" vertex="1" parent="DKlUDa0g7rmCu-vv5rfz-14">
          <mxGeometry x="1020" y="60" width="160" height="40" as="geometry" />
        </mxCell>
        <mxCell id="CoPnodNDMeY2YXLun1O6-13" value="Bloodthorns" style="rounded=1;whiteSpace=wrap;strokeWidth=2;strokeColor=#667788;textShadow=0;labelBackgroundColor=none;fontSize=15;fontFamily=Georgia;fontStyle=1" vertex="1" parent="DKlUDa0g7rmCu-vv5rfz-14">
          <mxGeometry x="1220" y="180" width="160" height="40" as="geometry" />
        </mxCell>
        <mxCell id="CoPnodNDMeY2YXLun1O6-15" value="Curse of the Wild" style="rounded=1;whiteSpace=wrap;strokeWidth=2;strokeColor=#667788;textShadow=0;labelBackgroundColor=none;fontSize=15;fontFamily=Georgia;" vertex="1" parent="DKlUDa0g7rmCu-vv5rfz-14">
          <mxGeometry x="1220" y="60" width="160" height="40" as="geometry" />
        </mxCell>
        <mxCell id="CoPnodNDMeY2YXLun1O6-27" value="Plague of Scavengers" style="rounded=1;whiteSpace=wrap;strokeWidth=2;strokeColor=#667788;textShadow=0;labelBackgroundColor=none;fontSize=15;fontFamily=Georgia;align=center;verticalAlign=middle;fontStyle=1" vertex="1" parent="DKlUDa0g7rmCu-vv5rfz-14">
          <mxGeometry x="1220" y="120" width="160" height="40" as="geometry" />
        </mxCell>
        <mxCell id="1" style="locked=1;" parent="0" />
        <mxCell id="-dR2T00Uhgw3VuPTZwKf-42" value="" style="html=1;rounded=0;strokeWidth=2;endArrow=none;endFill=0;dashed=1;labelBackgroundColor=none;shadow=1;movable=1;resizable=1;rotatable=1;deletable=1;editable=1;locked=0;connectable=1;fontColor=default;strokeColor=#667788;opacity=70;dashPattern=1 1;" parent="1" edge="1">
          <mxGeometry width="100" relative="1" as="geometry">
            <mxPoint x="200" y="10" as="sourcePoint" />
            <mxPoint x="200" y="1180" as="targetPoint" />
          </mxGeometry>
        </mxCell>
        <mxCell id="-dR2T00Uhgw3VuPTZwKf-54" value="" style="html=1;rounded=0;strokeWidth=2;endArrow=none;endFill=0;dashed=1;exitX=0.633;exitY=0;exitDx=0;exitDy=0;exitPerimeter=0;labelBackgroundColor=none;shadow=1;movable=1;resizable=1;rotatable=1;deletable=1;editable=1;locked=0;connectable=1;fontColor=default;strokeColor=#667788;opacity=70;dashPattern=1 1;" parent="1" edge="1">
          <mxGeometry width="100" relative="1" as="geometry">
            <mxPoint x="1000" y="10" as="sourcePoint" />
            <mxPoint x="1000" y="1180" as="targetPoint" />
          </mxGeometry>
        </mxCell>
        <mxCell id="-dR2T00Uhgw3VuPTZwKf-70" value="" style="html=1;rounded=0;strokeWidth=2;endArrow=none;endFill=0;dashed=1;labelBackgroundColor=none;shadow=1;movable=1;resizable=1;rotatable=1;deletable=1;editable=1;locked=0;connectable=1;fontColor=default;strokeColor=#667788;opacity=70;dashPattern=1 1;" parent="1" edge="1">
          <mxGeometry width="100" relative="1" as="geometry">
            <mxPoint x="10" y="40" as="sourcePoint" />
            <mxPoint x="1420" y="40" as="targetPoint" />
          </mxGeometry>
        </mxCell>
        <mxCell id="DKlUDa0g7rmCu-vv5rfz-8" value="" style="html=1;rounded=0;strokeWidth=2;endArrow=none;endFill=0;dashed=1;labelBackgroundColor=none;shadow=1;movable=1;resizable=1;rotatable=1;deletable=1;editable=1;locked=0;connectable=1;fontColor=default;strokeColor=#667788;opacity=70;dashPattern=1 1;" parent="1" edge="1">
          <mxGeometry width="100" relative="1" as="geometry">
            <mxPoint x="600" y="10" as="sourcePoint" />
            <mxPoint x="600" y="1180" as="targetPoint" />
          </mxGeometry>
        </mxCell>
        <mxCell id="DKlUDa0g7rmCu-vv5rfz-415" value="Basic" style="text;align=center;verticalAlign=middle;resizable=0;points=[];autosize=0;strokeColor=none;fillColor=none;fontFamily=Helvetica;fontSize=18;fontColor=#667788;labelBackgroundColor=none;textShadow=1;" parent="1" vertex="1">
          <mxGeometry x="360" width="80" height="40" as="geometry" />
        </mxCell>
        <mxCell id="DKlUDa0g7rmCu-vv5rfz-416" value="Intermediate" style="text;align=center;verticalAlign=middle;resizable=0;points=[];autosize=0;strokeColor=none;fillColor=none;fontFamily=Helvetica;fontSize=18;fontColor=#667788;labelBackgroundColor=none;textShadow=1;" parent="1" vertex="1">
          <mxGeometry x="740" width="120" height="40" as="geometry" />
        </mxCell>
        <mxCell id="DKlUDa0g7rmCu-vv5rfz-417" value="Intro" style="text;html=1;align=center;verticalAlign=middle;resizable=0;points=[];autosize=0;strokeColor=none;fillColor=none;fontFamily=Helvetica;fontSize=18;fontColor=#667788;labelBackgroundColor=none;textShadow=1;" parent="1" vertex="1">
          <mxGeometry x="60" width="80" height="40" as="geometry" />
        </mxCell>
        <mxCell id="DKlUDa0g7rmCu-vv5rfz-418" value="Advanced" style="text;align=center;verticalAlign=middle;resizable=0;points=[];autosize=0;strokeColor=none;fillColor=none;fontFamily=Helvetica;fontSize=18;fontColor=#667788;labelBackgroundColor=none;textShadow=1;" parent="1" vertex="1">
          <mxGeometry x="1160" width="120" height="40" as="geometry" />
        </mxCell>
        <mxCell id="-dR2T00Uhgw3VuPTZwKf-47" value="Legend" style="rounded=1;fillColor=none;verticalAlign=top;labelBackgroundColor=none;movable=1;resizable=1;rotatable=1;deletable=1;editable=1;locked=0;connectable=1;container=0;fontStyle=1;fontColor=#667788;fontFamily=Georgia;strokeColor=#667788;shadow=1;glass=0;strokeWidth=1;textShadow=0;whiteSpace=wrap;" parent="1" vertex="1">
          <mxGeometry x="1220" y="700" width="200" height="480" as="geometry" />
        </mxCell>
        <mxCell id="-dR2T00Uhgw3VuPTZwKf-555" value="Metamagic" style="rounded=1;whiteSpace=wrap;fillColor=#D5D0CA;labelBackgroundColor=none;movable=1;resizable=1;rotatable=1;deletable=1;editable=1;locked=0;connectable=1;container=0;fontFamily=Georgia;fontSize=18;strokeColor=#667788;shadow=0;glass=0;strokeWidth=1;align=center;fontStyle=1;verticalAlign=middle;fontColor=#000000;textShadow=0;" parent="1" vertex="1">
          <mxGeometry x="1240" y="1020" width="160" height="40" as="geometry" />
        </mxCell>
        <mxCell id="DKlUDa0g7rmCu-vv5rfz-169" value="Debilitation" style="rounded=1;whiteSpace=wrap;fillColor=#EBCD00;labelBackgroundColor=none;movable=1;resizable=1;rotatable=1;deletable=1;editable=1;locked=0;connectable=1;container=0;fontFamily=Georgia;fontSize=18;strokeColor=#667788;shadow=1;glass=0;strokeWidth=1;align=center;fontStyle=1;verticalAlign=middle;fontColor=#000000;textShadow=0;" parent="1" vertex="1">
          <mxGeometry x="1240" y="970" width="160" height="40" as="geometry" />
        </mxCell>
        <mxCell id="DKlUDa0g7rmCu-vv5rfz-170" value="Targeted Magic" style="rounded=1;whiteSpace=wrap;fillColor=#E80538;labelBackgroundColor=none;movable=1;resizable=1;rotatable=1;deletable=1;editable=1;locked=0;connectable=1;container=0;fontFamily=Georgia;fontSize=18;strokeColor=#667788;shadow=1;glass=0;strokeWidth=1;align=center;fontStyle=1;verticalAlign=middle;fontColor=#FFFFFF;textShadow=0;" parent="1" vertex="1">
          <mxGeometry x="1240" y="920" width="160" height="40" as="geometry" />
        </mxCell>
        <mxCell id="DKlUDa0g7rmCu-vv5rfz-171" value="Utility" style="rounded=1;whiteSpace=wrap;fillColor=#B3D56A;labelBackgroundColor=none;movable=1;resizable=1;rotatable=1;deletable=1;editable=1;locked=0;connectable=1;container=0;fontFamily=Georgia;fontSize=18;strokeColor=#667788;shadow=1;glass=0;strokeWidth=1;align=center;fontStyle=1;verticalAlign=middle;fontColor=#000000;textShadow=0;" parent="1" vertex="1">
          <mxGeometry x="1240" y="870" width="160" height="40" as="geometry" />
        </mxCell>
        <mxCell id="DKlUDa0g7rmCu-vv5rfz-172" value="Warding" style="rounded=1;whiteSpace=wrap;fillColor=#147a6d;labelBackgroundColor=none;movable=1;resizable=1;rotatable=1;deletable=1;editable=1;locked=0;connectable=1;container=0;fontFamily=Georgia;fontSize=18;strokeColor=#667788;shadow=1;glass=0;strokeWidth=1;align=center;fontStyle=1;verticalAlign=middle;fontColor=#FFFFFF;textShadow=0;" parent="1" vertex="1">
          <mxGeometry x="1240" y="820" width="160" height="40" as="geometry" />
        </mxCell>
        <mxCell id="DKlUDa0g7rmCu-vv5rfz-174" value="Augmentation" style="rounded=1;whiteSpace=wrap;fillColor=#AAC8EB;labelBackgroundColor=none;movable=1;resizable=1;rotatable=1;deletable=1;editable=1;locked=0;connectable=1;container=0;fontFamily=Georgia;fontSize=18;strokeColor=#667788;shadow=1;glass=0;strokeWidth=1;fontColor=#000000;align=center;fontStyle=1;verticalAlign=middle;textShadow=0;" parent="1" vertex="1">
          <mxGeometry x="1240" y="770" width="160" height="40" as="geometry" />
        </mxCell>
        <mxCell id="DKlUDa0g7rmCu-vv5rfz-178" value="Special requirements in italics" style="text;align=center;verticalAlign=middle;whiteSpace=wrap;rounded=1;fontFamily=Georgia;fontSize=15;fontColor=#667788;labelBackgroundColor=none;fontStyle=3;strokeColor=none;shadow=1;glass=0;strokeWidth=1;movable=1;resizable=1;rotatable=1;deletable=1;editable=1;locked=0;connectable=1;" parent="1" vertex="1">
          <mxGeometry x="1240" y="730" width="160" height="40" as="geometry" />
        </mxCell>
        <mxCell id="DKlUDa0g7rmCu-vv5rfz-186" value="Signature spells in bold" style="text;align=center;verticalAlign=middle;whiteSpace=wrap;rounded=1;fontFamily=Georgia;fontSize=15;fontColor=#667788;labelBackgroundColor=none;fontStyle=1;strokeColor=none;shadow=1;glass=0;strokeWidth=1;movable=1;resizable=1;rotatable=1;deletable=1;editable=1;locked=0;connectable=1;" parent="1" vertex="1">
          <mxGeometry x="1240" y="1070" width="160" height="40" as="geometry" />
        </mxCell>
        <mxCell id="DKlUDa0g7rmCu-vv5rfz-187" value="●○○○&#xa;Spell slot cost" style="text;align=center;verticalAlign=middle;whiteSpace=wrap;rounded=1;fontFamily=Georgia;fontSize=15;fontColor=#667788;labelBackgroundColor=none;strokeColor=none;shadow=1;glass=0;strokeWidth=1;movable=1;resizable=1;rotatable=1;deletable=1;editable=1;locked=0;connectable=1;fontStyle=1" parent="1" vertex="1">
          <mxGeometry x="1240" y="1110" width="160" height="40" as="geometry" />
        </mxCell>
        <mxCell id="DKlUDa0g7rmCu-vv5rfz-324" value="Colors" style="locked=1;" parent="0" visible="0" />
        <mxCell id="DKlUDa0g7rmCu-vv5rfz-326" value="" style="rounded=1;whiteSpace=wrap;strokeWidth=2;strokeColor=none;textShadow=1;labelBackgroundColor=none;fillColor=#AAC8EB;shadow=0;" parent="DKlUDa0g7rmCu-vv5rfz-324" vertex="1">
          <mxGeometry x="20" y="60" width="160" height="40" as="geometry" />
        </mxCell>
        <mxCell id="DKlUDa0g7rmCu-vv5rfz-327" value="" style="rounded=1;whiteSpace=wrap;strokeWidth=2;strokeColor=none;textShadow=1;labelBackgroundColor=none;fillColor=#EBCD00;shadow=0;" parent="DKlUDa0g7rmCu-vv5rfz-324" vertex="1">
          <mxGeometry x="620" y="60" width="160" height="40" as="geometry" />
        </mxCell>
        <mxCell id="DKlUDa0g7rmCu-vv5rfz-328" value="" style="rounded=1;whiteSpace=wrap;strokeWidth=2;strokeColor=none;textShadow=1;labelBackgroundColor=none;fillColor=#B3D56A;shadow=0;" parent="DKlUDa0g7rmCu-vv5rfz-324" vertex="1">
          <mxGeometry x="620" y="120" width="160" height="40" as="geometry" />
        </mxCell>
        <mxCell id="DKlUDa0g7rmCu-vv5rfz-329" value="" style="rounded=1;whiteSpace=wrap;strokeWidth=2;strokeColor=none;textShadow=1;labelBackgroundColor=none;fillColor=#B3D56A;shadow=0;" parent="DKlUDa0g7rmCu-vv5rfz-324" vertex="1">
          <mxGeometry x="620" y="180" width="160" height="40" as="geometry" />
        </mxCell>
        <mxCell id="DKlUDa0g7rmCu-vv5rfz-330" value="" style="rounded=1;whiteSpace=wrap;strokeWidth=2;strokeColor=none;textShadow=1;labelBackgroundColor=none;fillColor=#B3D56A;shadow=0;" parent="DKlUDa0g7rmCu-vv5rfz-324" vertex="1">
          <mxGeometry x="420" y="150" width="160" height="40" as="geometry" />
        </mxCell>
        <mxCell id="DKlUDa0g7rmCu-vv5rfz-331" value="" style="rounded=1;whiteSpace=wrap;strokeWidth=2;strokeColor=none;textShadow=1;labelBackgroundColor=none;fillColor=#EBCD00;shadow=0;" parent="DKlUDa0g7rmCu-vv5rfz-324" vertex="1">
          <mxGeometry x="220" y="150" width="160" height="40" as="geometry" />
        </mxCell>
        <mxCell id="DKlUDa0g7rmCu-vv5rfz-332" value="" style="rounded=1;whiteSpace=wrap;strokeWidth=2;strokeColor=none;textShadow=1;labelBackgroundColor=none;fillColor=#D5D0CA;shadow=0;" parent="DKlUDa0g7rmCu-vv5rfz-324" vertex="1">
          <mxGeometry x="820" y="150" width="160" height="40" as="geometry" />
        </mxCell>
        <mxCell id="DKlUDa0g7rmCu-vv5rfz-333" value="" style="rounded=1;whiteSpace=wrap;strokeWidth=2;strokeColor=#667788;textShadow=1;labelBackgroundColor=none;fillColor=#147A6D;" parent="DKlUDa0g7rmCu-vv5rfz-324" vertex="1">
          <mxGeometry x="820" y="260" width="160" height="40" as="geometry" />
        </mxCell>
        <mxCell id="DKlUDa0g7rmCu-vv5rfz-334" value="" style="rounded=1;whiteSpace=wrap;strokeWidth=2;strokeColor=#667788;textShadow=1;labelBackgroundColor=none;fillColor=#AAC8EB;" parent="DKlUDa0g7rmCu-vv5rfz-324" vertex="1">
          <mxGeometry x="820" y="320" width="160" height="40" as="geometry" />
        </mxCell>
        <mxCell id="DKlUDa0g7rmCu-vv5rfz-336" value="" style="rounded=1;whiteSpace=wrap;strokeWidth=2;strokeColor=#667788;textShadow=1;labelBackgroundColor=none;fillColor=#D5D0CA;shadow=0;" parent="DKlUDa0g7rmCu-vv5rfz-324" vertex="1">
          <mxGeometry x="820" y="380" width="160" height="40" as="geometry" />
        </mxCell>
        <mxCell id="DKlUDa0g7rmCu-vv5rfz-337" value="" style="rounded=1;whiteSpace=wrap;strokeWidth=2;strokeColor=#667788;textShadow=1;labelBackgroundColor=none;fillColor=#D5D0CA;shadow=0;" parent="DKlUDa0g7rmCu-vv5rfz-324" vertex="1">
          <mxGeometry x="1020" y="380" width="160" height="40" as="geometry" />
        </mxCell>
        <mxCell id="DKlUDa0g7rmCu-vv5rfz-338" value="" style="rounded=1;whiteSpace=wrap;strokeWidth=2;strokeColor=#667788;textShadow=1;labelBackgroundColor=none;fillColor=#B3D56A;" parent="DKlUDa0g7rmCu-vv5rfz-324" vertex="1">
          <mxGeometry x="1220" y="290" width="160" height="40" as="geometry" />
        </mxCell>
        <mxCell id="DKlUDa0g7rmCu-vv5rfz-342" value="" style="rounded=1;whiteSpace=wrap;strokeWidth=2;strokeColor=#667788;textShadow=1;labelBackgroundColor=none;fillColor=#B3D56A;" parent="DKlUDa0g7rmCu-vv5rfz-324" vertex="1">
          <mxGeometry x="620" y="290" width="160" height="40" as="geometry" />
        </mxCell>
        <mxCell id="DKlUDa0g7rmCu-vv5rfz-344" value="" style="rounded=1;whiteSpace=wrap;strokeWidth=2;strokeColor=#667788;textShadow=1;labelBackgroundColor=none;fillColor=#B3D56A;" parent="DKlUDa0g7rmCu-vv5rfz-324" vertex="1">
          <mxGeometry x="620" y="380" width="160" height="40" as="geometry" />
        </mxCell>
        <mxCell id="DKlUDa0g7rmCu-vv5rfz-347" value="" style="rounded=1;whiteSpace=wrap;strokeWidth=2;strokeColor=#667788;textShadow=1;labelBackgroundColor=none;fillColor=#B3D56A;" parent="DKlUDa0g7rmCu-vv5rfz-324" vertex="1">
          <mxGeometry x="420" y="290" width="160" height="40" as="geometry" />
        </mxCell>
        <mxCell id="DKlUDa0g7rmCu-vv5rfz-351" value="" style="rounded=1;whiteSpace=wrap;strokeWidth=2;strokeColor=#667788;textShadow=1;labelBackgroundColor=none;fillColor=#E80538;" parent="DKlUDa0g7rmCu-vv5rfz-324" vertex="1">
          <mxGeometry x="1020" y="460" width="160" height="40" as="geometry" />
        </mxCell>
        <mxCell id="DKlUDa0g7rmCu-vv5rfz-352" value="" style="rounded=1;whiteSpace=wrap;strokeWidth=2;strokeColor=#667788;textShadow=1;labelBackgroundColor=none;fillColor=#D5D0CA;shadow=0;" parent="DKlUDa0g7rmCu-vv5rfz-324" vertex="1">
          <mxGeometry x="1220" y="460" width="160" height="40" as="geometry" />
        </mxCell>
        <mxCell id="DKlUDa0g7rmCu-vv5rfz-353" value="" style="rounded=1;whiteSpace=wrap;strokeWidth=2;strokeColor=#667788;textShadow=1;labelBackgroundColor=none;fillColor=#E80538;" parent="DKlUDa0g7rmCu-vv5rfz-324" vertex="1">
          <mxGeometry x="1020" y="520" width="160" height="40" as="geometry" />
        </mxCell>
        <mxCell id="DKlUDa0g7rmCu-vv5rfz-355" value="" style="rounded=1;whiteSpace=wrap;strokeWidth=2;strokeColor=#667788;textShadow=1;labelBackgroundColor=none;fillColor=#EBCD00;" parent="DKlUDa0g7rmCu-vv5rfz-324" vertex="1">
          <mxGeometry x="620" y="520" width="160" height="40" as="geometry" />
        </mxCell>
        <mxCell id="DKlUDa0g7rmCu-vv5rfz-357" value="" style="rounded=1;whiteSpace=wrap;strokeWidth=2;strokeColor=#667788;textShadow=1;labelBackgroundColor=none;fillColor=#AAC8EB;" parent="DKlUDa0g7rmCu-vv5rfz-324" vertex="1">
          <mxGeometry x="620" y="580" width="160" height="40" as="geometry" />
        </mxCell>
        <mxCell id="DKlUDa0g7rmCu-vv5rfz-358" value="" style="rounded=1;whiteSpace=wrap;strokeWidth=2;strokeColor=#667788;textShadow=1;labelBackgroundColor=none;fillColor=#AAC8EB;" parent="DKlUDa0g7rmCu-vv5rfz-324" vertex="1">
          <mxGeometry x="820" y="580" width="160" height="40" as="geometry" />
        </mxCell>
        <mxCell id="DKlUDa0g7rmCu-vv5rfz-362" value="" style="rounded=1;whiteSpace=wrap;strokeWidth=2;strokeColor=#667788;textShadow=1;labelBackgroundColor=none;fillColor=#E80538;" parent="DKlUDa0g7rmCu-vv5rfz-324" vertex="1">
          <mxGeometry x="20" y="520" width="160" height="40" as="geometry" />
        </mxCell>
        <mxCell id="DKlUDa0g7rmCu-vv5rfz-363" value="" style="rounded=1;whiteSpace=wrap;strokeWidth=2;strokeColor=#667788;textShadow=1;labelBackgroundColor=none;fillColor=#147A6D;" parent="DKlUDa0g7rmCu-vv5rfz-324" vertex="1">
          <mxGeometry x="1020" y="660" width="160" height="40" as="geometry" />
        </mxCell>
        <mxCell id="DKlUDa0g7rmCu-vv5rfz-366" value="" style="rounded=1;whiteSpace=wrap;strokeWidth=2;strokeColor=#667788;textShadow=1;labelBackgroundColor=none;fillColor=#AAC8EB;" parent="DKlUDa0g7rmCu-vv5rfz-324" vertex="1">
          <mxGeometry x="420" y="660" width="160" height="40" as="geometry" />
        </mxCell>
        <mxCell id="DKlUDa0g7rmCu-vv5rfz-369" value="" style="rounded=1;whiteSpace=wrap;strokeWidth=2;strokeColor=#667788;textShadow=1;labelBackgroundColor=none;fillColor=#AAC8EB;" parent="DKlUDa0g7rmCu-vv5rfz-324" vertex="1">
          <mxGeometry x="220" y="660" width="160" height="40" as="geometry" />
        </mxCell>
        <mxCell id="DKlUDa0g7rmCu-vv5rfz-373" value="" style="rounded=1;whiteSpace=wrap;strokeWidth=2;strokeColor=#667788;textShadow=1;labelBackgroundColor=none;fillColor=#AAC8EB;" parent="DKlUDa0g7rmCu-vv5rfz-324" vertex="1">
          <mxGeometry x="420" y="720" width="160" height="40" as="geometry" />
        </mxCell>
        <mxCell id="DKlUDa0g7rmCu-vv5rfz-374" value="" style="rounded=1;whiteSpace=wrap;strokeWidth=2;strokeColor=#667788;textShadow=1;labelBackgroundColor=none;fillColor=#147A6D;" parent="DKlUDa0g7rmCu-vv5rfz-324" vertex="1">
          <mxGeometry x="820" y="720" width="160" height="40" as="geometry" />
        </mxCell>
        <mxCell id="DKlUDa0g7rmCu-vv5rfz-375" value="" style="rounded=1;whiteSpace=wrap;strokeWidth=2;strokeColor=#667788;textShadow=1;labelBackgroundColor=none;fillColor=#D5D0CA;shadow=0;" parent="DKlUDa0g7rmCu-vv5rfz-324" vertex="1">
          <mxGeometry x="620" y="780" width="160" height="40" as="geometry" />
        </mxCell>
        <mxCell id="DKlUDa0g7rmCu-vv5rfz-378" value="" style="rounded=1;whiteSpace=wrap;strokeWidth=2;strokeColor=#667788;textShadow=1;labelBackgroundColor=none;fillColor=#B3D56A;" parent="DKlUDa0g7rmCu-vv5rfz-324" vertex="1">
          <mxGeometry x="820" y="860" width="160" height="40" as="geometry" />
        </mxCell>
        <mxCell id="DKlUDa0g7rmCu-vv5rfz-380" value="" style="rounded=1;whiteSpace=wrap;strokeWidth=2;strokeColor=#667788;textShadow=1;labelBackgroundColor=none;fillColor=#E80538;" parent="DKlUDa0g7rmCu-vv5rfz-324" vertex="1">
          <mxGeometry x="620" y="860" width="160" height="40" as="geometry" />
        </mxCell>
        <mxCell id="DKlUDa0g7rmCu-vv5rfz-382" value="" style="rounded=1;whiteSpace=wrap;strokeWidth=2;strokeColor=#667788;textShadow=1;labelBackgroundColor=none;fillColor=#E80538;" parent="DKlUDa0g7rmCu-vv5rfz-324" vertex="1">
          <mxGeometry x="620" y="920" width="160" height="40" as="geometry" />
        </mxCell>
        <mxCell id="DKlUDa0g7rmCu-vv5rfz-383" value="" style="rounded=1;whiteSpace=wrap;strokeWidth=2;strokeColor=#667788;textShadow=1;labelBackgroundColor=none;fillColor=#B3D56A;" parent="DKlUDa0g7rmCu-vv5rfz-324" vertex="1">
          <mxGeometry x="1020" y="920" width="160" height="40" as="geometry" />
        </mxCell>
        <mxCell id="DKlUDa0g7rmCu-vv5rfz-384" value="" style="rounded=1;whiteSpace=wrap;strokeWidth=2;strokeColor=#667788;textShadow=1;labelBackgroundColor=none;fillColor=#B3D56A;" parent="DKlUDa0g7rmCu-vv5rfz-324" vertex="1">
          <mxGeometry x="1020" y="860" width="160" height="40" as="geometry" />
        </mxCell>
        <mxCell id="DKlUDa0g7rmCu-vv5rfz-388" value="" style="rounded=1;whiteSpace=wrap;strokeWidth=2;strokeColor=#667788;textShadow=1;labelBackgroundColor=none;fillColor=#EBCD00;" parent="DKlUDa0g7rmCu-vv5rfz-324" vertex="1">
          <mxGeometry x="20" y="860" width="160" height="40" as="geometry" />
        </mxCell>
        <mxCell id="DKlUDa0g7rmCu-vv5rfz-389" value="" style="rounded=1;whiteSpace=wrap;strokeWidth=2;strokeColor=#667788;textShadow=1;labelBackgroundColor=none;fillColor=#D5D0CA;shadow=0;" parent="DKlUDa0g7rmCu-vv5rfz-324" vertex="1">
          <mxGeometry x="820" y="1000" width="160" height="40" as="geometry" />
        </mxCell>
        <mxCell id="DKlUDa0g7rmCu-vv5rfz-393" value="" style="rounded=1;whiteSpace=wrap;strokeWidth=2;strokeColor=#667788;textShadow=1;labelBackgroundColor=none;fillColor=#AAC8EB;gradientColor=#147A6D;gradientDirection=east;" parent="DKlUDa0g7rmCu-vv5rfz-324" vertex="1">
          <mxGeometry x="620" y="1060" width="160" height="40" as="geometry" />
        </mxCell>
        <mxCell id="DKlUDa0g7rmCu-vv5rfz-396" value="" style="rounded=1;whiteSpace=wrap;strokeWidth=2;strokeColor=#667788;textShadow=1;labelBackgroundColor=none;fillColor=#147A6D;" parent="DKlUDa0g7rmCu-vv5rfz-324" vertex="1">
          <mxGeometry x="420" y="1060" width="160" height="40" as="geometry" />
        </mxCell>
        <mxCell id="DKlUDa0g7rmCu-vv5rfz-397" value="" style="rounded=1;whiteSpace=wrap;strokeWidth=2;strokeColor=#667788;textShadow=1;labelBackgroundColor=none;fillColor=#D5D0CA;shadow=0;" parent="DKlUDa0g7rmCu-vv5rfz-324" vertex="1">
          <mxGeometry x="820" y="1120" width="160" height="40" as="geometry" />
        </mxCell>
        <mxCell id="DKlUDa0g7rmCu-vv5rfz-398" value="" style="rounded=1;whiteSpace=wrap;strokeWidth=2;strokeColor=#667788;textShadow=1;labelBackgroundColor=none;fillColor=#EBCD00;gradientColor=#B3D56A;gradientDirection=east;" parent="DKlUDa0g7rmCu-vv5rfz-324" vertex="1">
          <mxGeometry x="620" y="1120" width="160" height="40" as="geometry" />
        </mxCell>
        <mxCell id="DKlUDa0g7rmCu-vv5rfz-399" value="" style="rounded=1;whiteSpace=wrap;strokeWidth=2;strokeColor=#667788;textShadow=1;labelBackgroundColor=none;fillColor=#E80538;gradientColor=#B3D56A;gradientDirection=east;" parent="DKlUDa0g7rmCu-vv5rfz-324" vertex="1">
          <mxGeometry x="1020" y="1060" width="160" height="40" as="geometry" />
        </mxCell>
        <mxCell id="DKlUDa0g7rmCu-vv5rfz-119" value="Spell name text" style="locked=1;" parent="0" visible="0" />
        <mxCell id="DKlUDa0g7rmCu-vv5rfz-188" value="Spell cost bubbles text" style="locked=1;" parent="0" visible="0" />
        <mxCell id="DKlUDa0g7rmCu-vv5rfz-201" value="●○○○" style="text;align=center;verticalAlign=middle;rounded=0;fontFamily=Helvetica;fontSize=13;fontColor=#000000;labelBackgroundColor=none;spacing=0;spacingTop=0;spacingBottom=-5;fillColor=none;" parent="DKlUDa0g7rmCu-vv5rfz-188" vertex="1">
          <mxGeometry x="140" y="80" width="40" height="20" as="geometry" />
        </mxCell>
        <mxCell id="DKlUDa0g7rmCu-vv5rfz-202" value="●○○○" style="text;align=center;verticalAlign=middle;rounded=0;fontFamily=Helvetica;fontSize=13;fontColor=default;labelBackgroundColor=none;spacing=0;spacingTop=0;spacingBottom=-5;fillColor=none;" parent="DKlUDa0g7rmCu-vv5rfz-188" vertex="1">
          <mxGeometry x="1140" y="400" width="40" height="20" as="geometry" />
        </mxCell>
        <mxCell id="DKlUDa0g7rmCu-vv5rfz-203" value="●○○○" style="text;align=center;verticalAlign=middle;rounded=0;fontFamily=Helvetica;fontSize=13;fontColor=default;labelBackgroundColor=none;spacing=0;spacingTop=0;spacingBottom=-5;fillColor=none;" parent="DKlUDa0g7rmCu-vv5rfz-188" vertex="1">
          <mxGeometry x="740" y="140" width="40" height="20" as="geometry" />
        </mxCell>
        <mxCell id="DKlUDa0g7rmCu-vv5rfz-204" value="●○○○" style="text;align=center;verticalAlign=middle;rounded=0;fontFamily=Helvetica;fontSize=13;fontColor=default;labelBackgroundColor=none;spacing=0;spacingTop=0;spacingBottom=-5;fillColor=none;" parent="DKlUDa0g7rmCu-vv5rfz-188" vertex="1">
          <mxGeometry x="740" y="200" width="40" height="20" as="geometry" />
        </mxCell>
        <mxCell id="DKlUDa0g7rmCu-vv5rfz-205" value="●○○○" style="text;align=center;verticalAlign=middle;rounded=0;fontFamily=Helvetica;fontSize=13;fontColor=default;labelBackgroundColor=none;spacing=0;spacingTop=0;spacingBottom=-5;fillColor=none;" parent="DKlUDa0g7rmCu-vv5rfz-188" vertex="1">
          <mxGeometry x="940" y="170" width="40" height="20" as="geometry" />
        </mxCell>
        <mxCell id="DKlUDa0g7rmCu-vv5rfz-206" value="●○○○" style="text;align=center;verticalAlign=middle;rounded=0;fontFamily=Helvetica;fontSize=13;fontColor=#FFFFFF;labelBackgroundColor=none;spacing=0;spacingTop=0;spacingBottom=-5;fillColor=none;" parent="DKlUDa0g7rmCu-vv5rfz-188" vertex="1">
          <mxGeometry x="140" y="540" width="40" height="20" as="geometry" />
        </mxCell>
        <mxCell id="DKlUDa0g7rmCu-vv5rfz-207" value="●○○○" style="text;align=center;verticalAlign=middle;rounded=0;fontFamily=Helvetica;fontSize=13;fontColor=#000000;labelBackgroundColor=none;spacing=0;spacingTop=0;spacingBottom=-5;fillColor=none;" parent="DKlUDa0g7rmCu-vv5rfz-188" vertex="1">
          <mxGeometry x="340" y="680" width="40" height="20" as="geometry" />
        </mxCell>
        <mxCell id="DKlUDa0g7rmCu-vv5rfz-208" value="●○○○" style="text;align=center;verticalAlign=middle;rounded=0;fontFamily=Helvetica;fontSize=13;fontColor=default;labelBackgroundColor=none;spacing=0;spacingTop=0;spacingBottom=-5;fillColor=none;" parent="DKlUDa0g7rmCu-vv5rfz-188" vertex="1">
          <mxGeometry x="740" y="800" width="40" height="20" as="geometry" />
        </mxCell>
        <mxCell id="DKlUDa0g7rmCu-vv5rfz-209" value="●○○○" style="text;align=center;verticalAlign=middle;rounded=0;fontFamily=Helvetica;fontSize=13;fontColor=default;labelBackgroundColor=none;spacing=0;spacingTop=0;spacingBottom=-5;fillColor=none;" parent="DKlUDa0g7rmCu-vv5rfz-188" vertex="1">
          <mxGeometry x="140" y="880" width="40" height="20" as="geometry" />
        </mxCell>
        <mxCell id="DKlUDa0g7rmCu-vv5rfz-210" value="●○○○" style="text;align=center;verticalAlign=middle;rounded=0;fontFamily=Helvetica;fontSize=13;fontColor=#FFFFFF;labelBackgroundColor=none;spacing=0;spacingTop=0;spacingBottom=-5;fillColor=none;" parent="DKlUDa0g7rmCu-vv5rfz-188" vertex="1">
          <mxGeometry x="540" y="1080" width="40" height="20" as="geometry" />
        </mxCell>
        <mxCell id="DKlUDa0g7rmCu-vv5rfz-211" value="●○○○" style="text;align=center;verticalAlign=middle;rounded=0;fontFamily=Helvetica;fontSize=13;fontColor=#000000;labelBackgroundColor=none;spacing=0;spacingTop=0;spacingBottom=-5;fillColor=none;" parent="DKlUDa0g7rmCu-vv5rfz-188" vertex="1">
          <mxGeometry x="740" y="1080" width="40" height="20" as="geometry" />
        </mxCell>
        <mxCell id="DKlUDa0g7rmCu-vv5rfz-212" value="●○○○" style="text;align=center;verticalAlign=middle;rounded=0;fontFamily=Helvetica;fontSize=13;fontColor=default;labelBackgroundColor=none;spacing=0;spacingTop=0;spacingBottom=-5;fillColor=none;" parent="DKlUDa0g7rmCu-vv5rfz-188" vertex="1">
          <mxGeometry x="740" y="1140" width="40" height="20" as="geometry" />
        </mxCell>
        <mxCell id="DKlUDa0g7rmCu-vv5rfz-218" value="●●○○" style="text;align=center;verticalAlign=middle;rounded=0;fontFamily=Helvetica;fontSize=13;fontColor=default;labelBackgroundColor=none;spacing=0;spacingTop=0;spacingBottom=-5;fillColor=none;" parent="DKlUDa0g7rmCu-vv5rfz-188" vertex="1">
          <mxGeometry x="340" y="170" width="40" height="20" as="geometry" />
        </mxCell>
        <mxCell id="DKlUDa0g7rmCu-vv5rfz-219" value="●●○○" style="text;align=center;verticalAlign=middle;rounded=0;fontFamily=Helvetica;fontSize=13;fontColor=default;labelBackgroundColor=none;spacing=0;spacingTop=0;spacingBottom=-5;fillColor=none;" parent="DKlUDa0g7rmCu-vv5rfz-188" vertex="1">
          <mxGeometry x="540" y="170" width="40" height="20" as="geometry" />
        </mxCell>
        <mxCell id="DKlUDa0g7rmCu-vv5rfz-220" value="●●○○" style="text;align=center;verticalAlign=middle;rounded=0;fontFamily=Helvetica;fontSize=13;fontColor=default;labelBackgroundColor=none;spacing=0;spacingTop=0;spacingBottom=-5;fillColor=none;" parent="DKlUDa0g7rmCu-vv5rfz-188" vertex="1">
          <mxGeometry x="740" y="80" width="40" height="20" as="geometry" />
        </mxCell>
        <mxCell id="DKlUDa0g7rmCu-vv5rfz-221" value="●●○○" style="text;align=center;verticalAlign=middle;rounded=0;fontFamily=Helvetica;fontSize=13;fontColor=default;labelBackgroundColor=none;spacing=0;spacingTop=0;spacingBottom=-5;fillColor=none;" parent="DKlUDa0g7rmCu-vv5rfz-188" vertex="1">
          <mxGeometry x="540" y="310" width="40" height="20" as="geometry" />
        </mxCell>
        <mxCell id="DKlUDa0g7rmCu-vv5rfz-222" value="●●○○" style="text;align=center;verticalAlign=middle;rounded=0;fontFamily=Helvetica;fontSize=13;fontColor=default;labelBackgroundColor=none;spacing=0;spacingTop=0;spacingBottom=-5;fillColor=none;" parent="DKlUDa0g7rmCu-vv5rfz-188" vertex="1">
          <mxGeometry x="740" y="400" width="40" height="20" as="geometry" />
        </mxCell>
        <mxCell id="DKlUDa0g7rmCu-vv5rfz-223" value="●●○○" style="text;align=center;verticalAlign=middle;rounded=0;fontFamily=Helvetica;fontSize=13;fontColor=default;labelBackgroundColor=none;spacing=0;spacingTop=0;spacingBottom=-5;fillColor=none;" parent="DKlUDa0g7rmCu-vv5rfz-188" vertex="1">
          <mxGeometry x="940" y="400" width="40" height="20" as="geometry" />
        </mxCell>
        <mxCell id="DKlUDa0g7rmCu-vv5rfz-224" value="●●○○" style="text;align=center;verticalAlign=middle;rounded=0;fontFamily=Helvetica;fontSize=13;fontColor=#FFFFFF;labelBackgroundColor=none;spacing=0;spacingTop=0;spacingBottom=-5;fillColor=none;" parent="DKlUDa0g7rmCu-vv5rfz-188" vertex="1">
          <mxGeometry x="940" y="280" width="40" height="20" as="geometry" />
        </mxCell>
        <mxCell id="DKlUDa0g7rmCu-vv5rfz-225" value="●●○○" style="text;align=center;verticalAlign=middle;rounded=0;fontFamily=Helvetica;fontSize=13;fontColor=default;labelBackgroundColor=none;spacing=0;spacingTop=0;spacingBottom=-5;fillColor=none;" parent="DKlUDa0g7rmCu-vv5rfz-188" vertex="1">
          <mxGeometry x="740" y="540" width="40" height="20" as="geometry" />
        </mxCell>
        <mxCell id="DKlUDa0g7rmCu-vv5rfz-226" value="●●○○" style="text;align=center;verticalAlign=middle;rounded=0;fontFamily=Helvetica;fontSize=13;fontColor=#FFFFFF;labelBackgroundColor=none;spacing=0;spacingTop=0;spacingBottom=-5;fillColor=none;" parent="DKlUDa0g7rmCu-vv5rfz-188" vertex="1">
          <mxGeometry x="1140" y="480" width="40" height="20" as="geometry" />
        </mxCell>
        <mxCell id="DKlUDa0g7rmCu-vv5rfz-227" value="●●○○" style="text;align=center;verticalAlign=middle;rounded=0;fontFamily=Helvetica;fontSize=13;fontColor=#FFFFFF;labelBackgroundColor=none;spacing=0;spacingTop=0;spacingBottom=-5;fillColor=none;" parent="DKlUDa0g7rmCu-vv5rfz-188" vertex="1">
          <mxGeometry x="1140" y="540" width="40" height="20" as="geometry" />
        </mxCell>
        <mxCell id="DKlUDa0g7rmCu-vv5rfz-228" value="●●○○" style="text;align=center;verticalAlign=middle;rounded=0;fontFamily=Helvetica;fontSize=13;fontColor=#FFFFFF;labelBackgroundColor=none;spacing=0;spacingTop=0;spacingBottom=-5;fillColor=none;" parent="DKlUDa0g7rmCu-vv5rfz-188" vertex="1">
          <mxGeometry x="1140" y="680" width="40" height="20" as="geometry" />
        </mxCell>
        <mxCell id="DKlUDa0g7rmCu-vv5rfz-229" value="●●○○" style="text;align=center;verticalAlign=middle;rounded=0;fontFamily=Helvetica;fontSize=13;fontColor=#FFFFFF;labelBackgroundColor=none;spacing=0;spacingTop=0;spacingBottom=-5;fillColor=none;" parent="DKlUDa0g7rmCu-vv5rfz-188" vertex="1">
          <mxGeometry x="940" y="740" width="40" height="20" as="geometry" />
        </mxCell>
        <mxCell id="DKlUDa0g7rmCu-vv5rfz-230" value="●●○○" style="text;align=center;verticalAlign=middle;rounded=0;fontFamily=Helvetica;fontSize=13;fontColor=#000000;labelBackgroundColor=none;spacing=0;spacingTop=0;spacingBottom=-5;fillColor=none;" parent="DKlUDa0g7rmCu-vv5rfz-188" vertex="1">
          <mxGeometry x="540" y="680" width="40" height="20" as="geometry" />
        </mxCell>
        <mxCell id="DKlUDa0g7rmCu-vv5rfz-231" value="●●○○" style="text;align=center;verticalAlign=middle;rounded=0;fontFamily=Helvetica;fontSize=13;fontColor=#FFFFFF;labelBackgroundColor=none;spacing=0;spacingTop=0;spacingBottom=-5;fillColor=none;" parent="DKlUDa0g7rmCu-vv5rfz-188" vertex="1">
          <mxGeometry x="740" y="880" width="40" height="20" as="geometry" />
        </mxCell>
        <mxCell id="DKlUDa0g7rmCu-vv5rfz-232" value="●●○○" style="text;align=center;verticalAlign=middle;rounded=0;fontFamily=Helvetica;fontSize=13;fontColor=#FFFFFF;labelBackgroundColor=none;spacing=0;spacingTop=0;spacingBottom=-5;fillColor=none;" parent="DKlUDa0g7rmCu-vv5rfz-188" vertex="1">
          <mxGeometry x="740" y="940" width="40" height="20" as="geometry" />
        </mxCell>
        <mxCell id="DKlUDa0g7rmCu-vv5rfz-233" value="●●○○" style="text;align=center;verticalAlign=middle;rounded=0;fontFamily=Helvetica;fontSize=13;fontColor=default;labelBackgroundColor=none;spacing=0;spacingTop=0;spacingBottom=-5;fillColor=none;" parent="DKlUDa0g7rmCu-vv5rfz-188" vertex="1">
          <mxGeometry x="940" y="880" width="40" height="20" as="geometry" />
        </mxCell>
        <mxCell id="DKlUDa0g7rmCu-vv5rfz-234" value="●●○○" style="text;align=center;verticalAlign=middle;rounded=0;fontFamily=Helvetica;fontSize=13;fontColor=default;labelBackgroundColor=none;spacing=0;spacingTop=0;spacingBottom=-5;fillColor=none;" parent="DKlUDa0g7rmCu-vv5rfz-188" vertex="1">
          <mxGeometry x="1140" y="940" width="40" height="20" as="geometry" />
        </mxCell>
        <mxCell id="DKlUDa0g7rmCu-vv5rfz-235" value="●●○○" style="text;align=center;verticalAlign=middle;rounded=0;fontFamily=Helvetica;fontSize=13;fontColor=default;labelBackgroundColor=none;spacing=0;spacingTop=0;spacingBottom=-5;fillColor=none;" parent="DKlUDa0g7rmCu-vv5rfz-188" vertex="1">
          <mxGeometry x="940" y="1140" width="40" height="20" as="geometry" />
        </mxCell>
        <mxCell id="DKlUDa0g7rmCu-vv5rfz-236" value="●●●○" style="text;align=center;verticalAlign=middle;rounded=0;fontFamily=Helvetica;fontSize=13;fontColor=default;labelBackgroundColor=none;spacing=0;spacingTop=0;spacingBottom=-5;fillColor=none;" parent="DKlUDa0g7rmCu-vv5rfz-188" vertex="1">
          <mxGeometry x="740" y="310" width="40" height="20" as="geometry" />
        </mxCell>
        <mxCell id="DKlUDa0g7rmCu-vv5rfz-237" value="●●●○" style="text;align=center;verticalAlign=middle;rounded=0;fontFamily=Helvetica;fontSize=13;fontColor=#000000;labelBackgroundColor=none;spacing=0;spacingTop=0;spacingBottom=-5;fillColor=none;" parent="DKlUDa0g7rmCu-vv5rfz-188" vertex="1">
          <mxGeometry x="940" y="340" width="40" height="20" as="geometry" />
        </mxCell>
        <mxCell id="DKlUDa0g7rmCu-vv5rfz-238" value="●●●○" style="text;align=center;verticalAlign=middle;rounded=0;fontFamily=Helvetica;fontSize=13;fontColor=default;labelBackgroundColor=none;spacing=0;spacingTop=0;spacingBottom=-5;fillColor=none;" parent="DKlUDa0g7rmCu-vv5rfz-188" vertex="1">
          <mxGeometry x="1340" y="310" width="40" height="20" as="geometry" />
        </mxCell>
        <mxCell id="DKlUDa0g7rmCu-vv5rfz-239" value="●●●○" style="text;align=center;verticalAlign=middle;rounded=0;fontFamily=Helvetica;fontSize=13;fontColor=#000000;labelBackgroundColor=none;spacing=0;spacingTop=0;spacingBottom=-5;fillColor=none;" parent="DKlUDa0g7rmCu-vv5rfz-188" vertex="1">
          <mxGeometry x="740" y="600" width="40" height="20" as="geometry" />
        </mxCell>
        <mxCell id="DKlUDa0g7rmCu-vv5rfz-240" value="●●●○" style="text;align=center;verticalAlign=middle;rounded=0;fontFamily=Helvetica;fontSize=13;fontColor=default;labelBackgroundColor=none;spacing=0;spacingTop=0;spacingBottom=-5;fillColor=none;" parent="DKlUDa0g7rmCu-vv5rfz-188" vertex="1">
          <mxGeometry x="1140" y="880" width="40" height="20" as="geometry" />
        </mxCell>
        <mxCell id="DKlUDa0g7rmCu-vv5rfz-241" value="●●●○" style="text;align=center;verticalAlign=middle;rounded=0;fontFamily=Helvetica;fontSize=13;fontColor=default;labelBackgroundColor=none;spacing=0;spacingTop=0;spacingBottom=-5;fillColor=none;" parent="DKlUDa0g7rmCu-vv5rfz-188" vertex="1">
          <mxGeometry x="940" y="1020" width="40" height="20" as="geometry" />
        </mxCell>
        <mxCell id="DKlUDa0g7rmCu-vv5rfz-242" value="●●●○" style="text;align=center;verticalAlign=middle;rounded=0;fontFamily=Helvetica;fontSize=13;fontColor=default;labelBackgroundColor=none;spacing=0;spacingTop=0;spacingBottom=-5;fillColor=none;" parent="DKlUDa0g7rmCu-vv5rfz-188" vertex="1">
          <mxGeometry x="1140" y="1080" width="40" height="20" as="geometry" />
        </mxCell>
        <mxCell id="DKlUDa0g7rmCu-vv5rfz-243" value="●●○○" style="text;align=center;verticalAlign=middle;rounded=0;fontFamily=Helvetica;fontSize=13;fontColor=#000000;labelBackgroundColor=none;spacing=0;spacingTop=0;spacingBottom=-5;fillColor=none;" parent="DKlUDa0g7rmCu-vv5rfz-188" vertex="1">
          <mxGeometry x="540" y="740" width="40" height="20" as="geometry" />
        </mxCell>
        <mxCell id="DKlUDa0g7rmCu-vv5rfz-244" value="●●●●" style="text;align=center;verticalAlign=middle;rounded=0;fontFamily=Helvetica;fontSize=13;fontColor=#000000;labelBackgroundColor=none;spacing=0;spacingTop=0;spacingBottom=-5;fillColor=none;" parent="DKlUDa0g7rmCu-vv5rfz-188" vertex="1">
          <mxGeometry x="940" y="600" width="40" height="20" as="geometry" />
        </mxCell>
        <mxCell id="oZYUYXgQ6SidlnbCsRXE-2" value="●○○○" style="text;align=center;verticalAlign=middle;rounded=0;fontFamily=Helvetica;fontSize=13;fontColor=default;labelBackgroundColor=none;spacing=0;spacingTop=0;spacingBottom=-5;fillColor=none;" parent="DKlUDa0g7rmCu-vv5rfz-188" vertex="1">
          <mxGeometry x="1340" y="480" width="40" height="20" as="geometry" />
        </mxCell>
        <mxCell id="DKlUDa0g7rmCu-vv5rfz-245" value="Circle Pre-requisites text" style="locked=1;" parent="0" visible="0" />
        <mxCell id="DKlUDa0g7rmCu-vv5rfz-246" value="Circle 40" style="text;align=right;verticalAlign=bottom;resizable=0;points=[];autosize=1;strokeColor=none;fillColor=none;fontFamily=Georgia;fontSize=13;fontColor=#667788;labelBackgroundColor=none;fontStyle=3" parent="DKlUDa0g7rmCu-vv5rfz-245" vertex="1">
          <mxGeometry x="510" y="120" width="70" height="30" as="geometry" />
        </mxCell>
        <mxCell id="DKlUDa0g7rmCu-vv5rfz-260" value="Circle 5" style="text;align=right;verticalAlign=bottom;resizable=0;points=[];autosize=1;strokeColor=none;fillColor=none;fontFamily=Georgia;fontSize=13;fontColor=#667788;labelBackgroundColor=none;fontStyle=3" parent="DKlUDa0g7rmCu-vv5rfz-245" vertex="1">
          <mxGeometry x="510" y="260" width="70" height="30" as="geometry" />
        </mxCell>
        <mxCell id="DKlUDa0g7rmCu-vv5rfz-261" value="Circle 20" style="text;align=right;verticalAlign=bottom;resizable=0;points=[];autosize=1;strokeColor=none;fillColor=none;fontFamily=Georgia;fontSize=13;fontColor=#667788;labelBackgroundColor=none;fontStyle=3" parent="DKlUDa0g7rmCu-vv5rfz-245" vertex="1">
          <mxGeometry x="710" y="260" width="70" height="30" as="geometry" />
        </mxCell>
        <mxCell id="DKlUDa0g7rmCu-vv5rfz-262" value="Circle 40" style="text;align=right;verticalAlign=bottom;resizable=0;points=[];autosize=1;strokeColor=none;fillColor=none;fontFamily=Georgia;fontSize=13;fontColor=#667788;labelBackgroundColor=none;fontStyle=3" parent="DKlUDa0g7rmCu-vv5rfz-245" vertex="1">
          <mxGeometry x="1110" y="430" width="70" height="30" as="geometry" />
        </mxCell>
        <mxCell id="DKlUDa0g7rmCu-vv5rfz-263" value="Circle 80" style="text;align=right;verticalAlign=bottom;resizable=0;points=[];autosize=1;strokeColor=none;fillColor=none;fontFamily=Georgia;fontSize=13;fontColor=#667788;labelBackgroundColor=none;fontStyle=3" parent="DKlUDa0g7rmCu-vv5rfz-245" vertex="1">
          <mxGeometry x="1110" y="490" width="70" height="30" as="geometry" />
        </mxCell>
        <mxCell id="DKlUDa0g7rmCu-vv5rfz-264" value="Circle 50" style="text;align=right;verticalAlign=bottom;resizable=0;points=[];autosize=1;strokeColor=none;fillColor=none;fontFamily=Georgia;fontSize=13;fontColor=#667788;labelBackgroundColor=none;fontStyle=3" parent="DKlUDa0g7rmCu-vv5rfz-245" vertex="1">
          <mxGeometry x="1110" y="830" width="70" height="30" as="geometry" />
        </mxCell>
        <mxCell id="DKlUDa0g7rmCu-vv5rfz-265" value="Circle 15" style="text;align=right;verticalAlign=bottom;resizable=0;points=[];autosize=1;strokeColor=none;fillColor=none;fontFamily=Georgia;fontSize=13;fontColor=#667788;labelBackgroundColor=none;fontStyle=3" parent="DKlUDa0g7rmCu-vv5rfz-245" vertex="1">
          <mxGeometry x="910" y="830" width="70" height="30" as="geometry" />
        </mxCell>
        <mxCell id="DKlUDa0g7rmCu-vv5rfz-266" value="Circle 50" style="text;align=right;verticalAlign=bottom;resizable=0;points=[];autosize=1;strokeColor=none;fillColor=none;fontFamily=Georgia;fontSize=13;fontColor=#667788;labelBackgroundColor=none;fontStyle=3" parent="DKlUDa0g7rmCu-vv5rfz-245" vertex="1">
          <mxGeometry x="910" y="1090" width="70" height="30" as="geometry" />
        </mxCell>
        <mxCell id="DKlUDa0g7rmCu-vv5rfz-268" value="Spell Pre-requisites text" style="locked=1;" parent="0" visible="0" />
        <mxCell id="DKlUDa0g7rmCu-vv5rfz-269" value="Requires: Two of&#xa;OBF, ACS, or HP" style="text;align=left;verticalAlign=top;resizable=0;points=[];autosize=1;strokeColor=none;fillColor=none;fontFamily=Georgia;fontSize=13;fontColor=#667788;labelBackgroundColor=none;spacing=0;spacingBottom=0;spacingTop=-4;fontStyle=3" parent="DKlUDa0g7rmCu-vv5rfz-268" vertex="1">
          <mxGeometry x="220" y="700" width="110" height="30" as="geometry" />
        </mxCell>
        <mxCell id="DKlUDa0g7rmCu-vv5rfz-270" value="Requires:&#xa;BUE or KS" style="text;align=left;verticalAlign=top;resizable=0;points=[];autosize=1;strokeColor=none;fillColor=none;fontFamily=Georgia;fontSize=13;fontColor=#667788;labelBackgroundColor=none;spacing=0;spacingBottom=0;spacingTop=-4;fontStyle=3" parent="DKlUDa0g7rmCu-vv5rfz-268" vertex="1">
          <mxGeometry x="820" y="760" width="80" height="30" as="geometry" />
        </mxCell>
        <mxCell id="DKlUDa0g7rmCu-vv5rfz-271" value="Requires:&#xa;BUE or KS" style="text;align=left;verticalAlign=top;resizable=0;points=[];autosize=1;strokeColor=none;fillColor=none;fontFamily=Georgia;fontSize=13;fontColor=#667788;labelBackgroundColor=none;spacing=0;spacingBottom=0;spacingTop=-4;fontStyle=3" parent="DKlUDa0g7rmCu-vv5rfz-268" vertex="1">
          <mxGeometry x="1020" y="700" width="80" height="30" as="geometry" />
        </mxCell>
        <mxCell id="DKlUDa0g7rmCu-vv5rfz-272" value="Requires:&#xa;VOD or PV" style="text;align=left;verticalAlign=top;resizable=0;points=[];autosize=1;strokeColor=none;fillColor=none;fontFamily=Georgia;fontSize=13;fontColor=#667788;labelBackgroundColor=none;spacing=0;spacingBottom=0;spacingTop=-4;fontStyle=3" parent="DKlUDa0g7rmCu-vv5rfz-268" vertex="1">
          <mxGeometry x="420" y="190" width="80" height="30" as="geometry" />
        </mxCell>
        <mxCell id="DKlUDa0g7rmCu-vv5rfz-273" value="Spell Skill text" style="locked=1;" parent="0" visible="0" />
        <mxCell id="DKlUDa0g7rmCu-vv5rfz-274" value="U" style="text;align=center;verticalAlign=bottom;resizable=1;points=[];autosize=0;strokeColor=none;fillColor=none;fontFamily=Georgia;fontSize=12;fontColor=#000000;labelBackgroundColor=none;spacing=0;spacingRight=0;expand=0;recursiveResize=0;" parent="DKlUDa0g7rmCu-vv5rfz-273" vertex="1">
          <mxGeometry x="620" y="400" width="20" height="20" as="geometry" />
        </mxCell>
        <mxCell id="DKlUDa0g7rmCu-vv5rfz-275" value="A" style="text;align=center;verticalAlign=bottom;resizable=1;points=[];autosize=0;strokeColor=none;fillColor=none;fontFamily=Georgia;fontSize=12;fontColor=#000000;labelBackgroundColor=none;spacing=0;spacingRight=0;expand=0;recursiveResize=0;" parent="DKlUDa0g7rmCu-vv5rfz-273" vertex="1">
          <mxGeometry x="20" y="80" width="20" height="20" as="geometry" />
        </mxCell>
        <mxCell id="DKlUDa0g7rmCu-vv5rfz-276" value="D" style="text;align=center;verticalAlign=bottom;resizable=1;points=[];autosize=0;strokeColor=none;fillColor=none;fontFamily=Georgia;fontSize=12;fontColor=#000000;labelBackgroundColor=none;spacing=0;spacingRight=0;expand=0;recursiveResize=0;" parent="DKlUDa0g7rmCu-vv5rfz-273" vertex="1">
          <mxGeometry x="220" y="170" width="20" height="20" as="geometry" />
        </mxCell>
        <mxCell id="DKlUDa0g7rmCu-vv5rfz-277" value="U" style="text;align=center;verticalAlign=bottom;resizable=1;points=[];autosize=0;strokeColor=none;fillColor=none;fontFamily=Georgia;fontSize=12;fontColor=#000000;labelBackgroundColor=none;spacing=0;spacingRight=0;expand=0;recursiveResize=0;" parent="DKlUDa0g7rmCu-vv5rfz-273" vertex="1">
          <mxGeometry x="420" y="170" width="20" height="20" as="geometry" />
        </mxCell>
        <mxCell id="DKlUDa0g7rmCu-vv5rfz-278" value="D" style="text;align=center;verticalAlign=bottom;resizable=1;points=[];autosize=0;strokeColor=none;fillColor=none;fontFamily=Georgia;fontSize=12;fontColor=#000000;labelBackgroundColor=none;spacing=0;spacingRight=0;expand=0;recursiveResize=0;" parent="DKlUDa0g7rmCu-vv5rfz-273" vertex="1">
          <mxGeometry x="620" y="80" width="20" height="20" as="geometry" />
        </mxCell>
        <mxCell id="DKlUDa0g7rmCu-vv5rfz-279" value="U" style="text;align=center;verticalAlign=bottom;resizable=1;points=[];autosize=0;strokeColor=none;fillColor=none;fontFamily=Georgia;fontSize=12;fontColor=#000000;labelBackgroundColor=none;spacing=0;spacingRight=0;expand=0;recursiveResize=0;" parent="DKlUDa0g7rmCu-vv5rfz-273" vertex="1">
          <mxGeometry x="620" y="140" width="20" height="20" as="geometry" />
        </mxCell>
        <mxCell id="DKlUDa0g7rmCu-vv5rfz-280" value="U" style="text;align=center;verticalAlign=bottom;resizable=1;points=[];autosize=0;strokeColor=none;fillColor=none;fontFamily=Georgia;fontSize=12;fontColor=#000000;labelBackgroundColor=none;spacing=0;spacingRight=0;expand=0;recursiveResize=0;" parent="DKlUDa0g7rmCu-vv5rfz-273" vertex="1">
          <mxGeometry x="620" y="200" width="20" height="20" as="geometry" />
        </mxCell>
        <mxCell id="DKlUDa0g7rmCu-vv5rfz-281" value="M" style="text;align=center;verticalAlign=bottom;resizable=1;points=[];autosize=0;strokeColor=none;fillColor=none;fontFamily=Georgia;fontSize=12;fontColor=#000000;labelBackgroundColor=none;spacing=0;spacingRight=0;expand=0;recursiveResize=0;" parent="DKlUDa0g7rmCu-vv5rfz-273" vertex="1">
          <mxGeometry x="820" y="170" width="20" height="20" as="geometry" />
        </mxCell>
        <mxCell id="DKlUDa0g7rmCu-vv5rfz-282" value="W" style="text;align=center;verticalAlign=bottom;resizable=1;points=[];autosize=0;strokeColor=none;fillColor=none;fontFamily=Georgia;fontSize=12;fontColor=#000000;labelBackgroundColor=none;spacing=0;spacingRight=0;expand=0;recursiveResize=0;" parent="DKlUDa0g7rmCu-vv5rfz-273" vertex="1">
          <mxGeometry x="820" y="280" width="20" height="20" as="geometry" />
        </mxCell>
        <mxCell id="DKlUDa0g7rmCu-vv5rfz-283" value="U" style="text;align=center;verticalAlign=bottom;resizable=1;points=[];autosize=0;strokeColor=none;fillColor=none;fontFamily=Georgia;fontSize=12;fontColor=#000000;labelBackgroundColor=none;spacing=0;spacingRight=0;expand=0;recursiveResize=0;" parent="DKlUDa0g7rmCu-vv5rfz-273" vertex="1">
          <mxGeometry x="620" y="310" width="20" height="20" as="geometry" />
        </mxCell>
        <mxCell id="DKlUDa0g7rmCu-vv5rfz-284" value="U" style="text;align=center;verticalAlign=bottom;resizable=1;points=[];autosize=0;strokeColor=none;fillColor=none;fontFamily=Georgia;fontSize=12;fontColor=#000000;labelBackgroundColor=none;spacing=0;spacingRight=0;expand=0;recursiveResize=0;" parent="DKlUDa0g7rmCu-vv5rfz-273" vertex="1">
          <mxGeometry x="420" y="310" width="20" height="20" as="geometry" />
        </mxCell>
        <mxCell id="DKlUDa0g7rmCu-vv5rfz-285" value="M" style="text;align=center;verticalAlign=bottom;resizable=1;points=[];autosize=0;strokeColor=none;fillColor=none;fontFamily=Georgia;fontSize=12;fontColor=#000000;labelBackgroundColor=none;spacing=0;spacingRight=0;expand=0;recursiveResize=0;" parent="DKlUDa0g7rmCu-vv5rfz-273" vertex="1">
          <mxGeometry x="820" y="400" width="20" height="20" as="geometry" />
        </mxCell>
        <mxCell id="DKlUDa0g7rmCu-vv5rfz-286" value="M" style="text;align=center;verticalAlign=bottom;resizable=1;points=[];autosize=0;strokeColor=none;fillColor=none;fontFamily=Georgia;fontSize=12;fontColor=#000000;labelBackgroundColor=none;spacing=0;spacingRight=0;expand=0;recursiveResize=0;" parent="DKlUDa0g7rmCu-vv5rfz-273" vertex="1">
          <mxGeometry x="1020" y="400" width="20" height="20" as="geometry" />
        </mxCell>
        <mxCell id="DKlUDa0g7rmCu-vv5rfz-287" value="A" style="text;align=center;verticalAlign=bottom;resizable=1;points=[];autosize=0;strokeColor=none;fillColor=none;fontFamily=Georgia;fontSize=12;fontColor=#000000;labelBackgroundColor=none;spacing=0;spacingRight=0;expand=0;recursiveResize=0;" parent="DKlUDa0g7rmCu-vv5rfz-273" vertex="1">
          <mxGeometry x="820" y="340" width="20" height="20" as="geometry" />
        </mxCell>
        <mxCell id="DKlUDa0g7rmCu-vv5rfz-288" value="M" style="text;align=center;verticalAlign=bottom;resizable=1;points=[];autosize=0;strokeColor=none;fillColor=none;fontFamily=Georgia;fontSize=12;fontColor=#000000;labelBackgroundColor=none;spacing=0;spacingRight=0;expand=0;recursiveResize=0;" parent="DKlUDa0g7rmCu-vv5rfz-273" vertex="1">
          <mxGeometry x="1220" y="480" width="20" height="20" as="geometry" />
        </mxCell>
        <mxCell id="DKlUDa0g7rmCu-vv5rfz-289" value="T" style="text;align=center;verticalAlign=bottom;resizable=1;points=[];autosize=0;strokeColor=none;fillColor=none;fontFamily=Georgia;fontSize=12;fontColor=#000000;labelBackgroundColor=none;spacing=0;spacingRight=0;expand=0;recursiveResize=0;" parent="DKlUDa0g7rmCu-vv5rfz-273" vertex="1">
          <mxGeometry x="1020" y="480" width="20" height="20" as="geometry" />
        </mxCell>
        <mxCell id="DKlUDa0g7rmCu-vv5rfz-290" value="T" style="text;align=center;verticalAlign=bottom;resizable=1;points=[];autosize=0;strokeColor=none;fillColor=none;fontFamily=Georgia;fontSize=12;fontColor=#000000;labelBackgroundColor=none;spacing=0;spacingRight=0;expand=0;recursiveResize=0;" parent="DKlUDa0g7rmCu-vv5rfz-273" vertex="1">
          <mxGeometry x="1020" y="540" width="20" height="20" as="geometry" />
        </mxCell>
        <mxCell id="DKlUDa0g7rmCu-vv5rfz-291" value="A" style="text;align=center;verticalAlign=bottom;resizable=1;points=[];autosize=0;strokeColor=none;fillColor=none;fontFamily=Georgia;fontSize=12;fontColor=#000000;labelBackgroundColor=none;spacing=0;spacingRight=0;expand=0;recursiveResize=0;" parent="DKlUDa0g7rmCu-vv5rfz-273" vertex="1">
          <mxGeometry x="820" y="600" width="20" height="20" as="geometry" />
        </mxCell>
        <mxCell id="DKlUDa0g7rmCu-vv5rfz-292" value="D" style="text;align=center;verticalAlign=bottom;resizable=1;points=[];autosize=0;strokeColor=none;fillColor=none;fontFamily=Georgia;fontSize=12;fontColor=#000000;labelBackgroundColor=none;spacing=0;spacingRight=0;expand=0;recursiveResize=0;" parent="DKlUDa0g7rmCu-vv5rfz-273" vertex="1">
          <mxGeometry x="620" y="540" width="20" height="20" as="geometry" />
        </mxCell>
        <mxCell id="DKlUDa0g7rmCu-vv5rfz-293" value="A" style="text;align=center;verticalAlign=bottom;resizable=1;points=[];autosize=0;strokeColor=none;fillColor=none;fontFamily=Georgia;fontSize=12;fontColor=#000000;labelBackgroundColor=none;spacing=0;spacingRight=0;expand=0;recursiveResize=0;" parent="DKlUDa0g7rmCu-vv5rfz-273" vertex="1">
          <mxGeometry x="620" y="600" width="20" height="20" as="geometry" />
        </mxCell>
        <mxCell id="DKlUDa0g7rmCu-vv5rfz-294" value="M" style="text;align=center;verticalAlign=bottom;resizable=1;points=[];autosize=0;strokeColor=none;fillColor=none;fontFamily=Georgia;fontSize=12;fontColor=#000000;labelBackgroundColor=none;spacing=0;spacingRight=0;expand=0;recursiveResize=0;" parent="DKlUDa0g7rmCu-vv5rfz-273" vertex="1">
          <mxGeometry x="620" y="800" width="20" height="20" as="geometry" />
        </mxCell>
        <mxCell id="DKlUDa0g7rmCu-vv5rfz-295" value="W" style="text;align=center;verticalAlign=bottom;resizable=1;points=[];autosize=0;strokeColor=none;fillColor=none;fontFamily=Georgia;fontSize=12;fontColor=#000000;labelBackgroundColor=none;spacing=0;spacingRight=0;expand=0;recursiveResize=0;" parent="DKlUDa0g7rmCu-vv5rfz-273" vertex="1">
          <mxGeometry x="1020" y="680" width="20" height="20" as="geometry" />
        </mxCell>
        <mxCell id="DKlUDa0g7rmCu-vv5rfz-296" value="U" style="text;align=center;verticalAlign=bottom;resizable=1;points=[];autosize=0;strokeColor=none;fillColor=none;fontFamily=Georgia;fontSize=12;fontColor=#000000;labelBackgroundColor=none;spacing=0;spacingRight=0;expand=0;recursiveResize=0;" parent="DKlUDa0g7rmCu-vv5rfz-273" vertex="1">
          <mxGeometry x="1020" y="880" width="20" height="20" as="geometry" />
        </mxCell>
        <mxCell id="DKlUDa0g7rmCu-vv5rfz-297" value="U" style="text;align=center;verticalAlign=bottom;resizable=1;points=[];autosize=0;strokeColor=none;fillColor=none;fontFamily=Georgia;fontSize=12;fontColor=#000000;labelBackgroundColor=none;spacing=0;spacingRight=0;expand=0;recursiveResize=0;" parent="DKlUDa0g7rmCu-vv5rfz-273" vertex="1">
          <mxGeometry x="820" y="880" width="20" height="20" as="geometry" />
        </mxCell>
        <mxCell id="DKlUDa0g7rmCu-vv5rfz-298" value="W" style="text;align=center;verticalAlign=bottom;resizable=1;points=[];autosize=0;strokeColor=none;fillColor=none;fontFamily=Georgia;fontSize=12;fontColor=#000000;labelBackgroundColor=none;spacing=0;spacingRight=0;expand=0;recursiveResize=0;" parent="DKlUDa0g7rmCu-vv5rfz-273" vertex="1">
          <mxGeometry x="820" y="740" width="20" height="20" as="geometry" />
        </mxCell>
        <mxCell id="DKlUDa0g7rmCu-vv5rfz-299" value="M" style="text;align=center;verticalAlign=bottom;resizable=1;points=[];autosize=0;strokeColor=none;fillColor=none;fontFamily=Georgia;fontSize=12;fontColor=#000000;labelBackgroundColor=none;spacing=0;spacingRight=0;expand=0;recursiveResize=0;" parent="DKlUDa0g7rmCu-vv5rfz-273" vertex="1">
          <mxGeometry x="820" y="1020" width="20" height="20" as="geometry" />
        </mxCell>
        <mxCell id="DKlUDa0g7rmCu-vv5rfz-300" value="M" style="text;align=center;verticalAlign=bottom;resizable=1;points=[];autosize=0;strokeColor=none;fillColor=none;fontFamily=Georgia;fontSize=12;fontColor=#000000;labelBackgroundColor=none;spacing=0;spacingRight=0;expand=0;recursiveResize=0;" parent="DKlUDa0g7rmCu-vv5rfz-273" vertex="1">
          <mxGeometry x="820" y="1140" width="20" height="20" as="geometry" />
        </mxCell>
        <mxCell id="DKlUDa0g7rmCu-vv5rfz-301" value="T/U" style="text;align=center;verticalAlign=bottom;resizable=1;points=[];autosize=0;strokeColor=none;fillColor=none;fontFamily=Georgia;fontSize=12;fontColor=#000000;labelBackgroundColor=none;spacing=0;spacingRight=0;expand=0;recursiveResize=0;spacingLeft=4;" parent="DKlUDa0g7rmCu-vv5rfz-273" vertex="1">
          <mxGeometry x="1020" y="1080" width="20" height="20" as="geometry" />
        </mxCell>
        <mxCell id="DKlUDa0g7rmCu-vv5rfz-304" value="T" style="text;align=center;verticalAlign=bottom;resizable=1;points=[];autosize=0;strokeColor=none;fillColor=none;fontFamily=Georgia;fontSize=12;fontColor=#000000;labelBackgroundColor=none;spacing=0;spacingRight=0;expand=0;recursiveResize=0;" parent="DKlUDa0g7rmCu-vv5rfz-273" vertex="1">
          <mxGeometry x="620" y="880" width="20" height="20" as="geometry" />
        </mxCell>
        <mxCell id="DKlUDa0g7rmCu-vv5rfz-305" value="W" style="text;align=center;verticalAlign=bottom;resizable=1;points=[];autosize=0;strokeColor=none;fillColor=none;fontFamily=Georgia;fontSize=12;fontColor=#000000;labelBackgroundColor=none;spacing=0;spacingRight=0;expand=0;recursiveResize=0;" parent="DKlUDa0g7rmCu-vv5rfz-273" vertex="1">
          <mxGeometry x="420" y="1080" width="20" height="20" as="geometry" />
        </mxCell>
        <mxCell id="DKlUDa0g7rmCu-vv5rfz-306" value="A" style="text;align=center;verticalAlign=bottom;resizable=1;points=[];autosize=0;strokeColor=none;fillColor=none;fontFamily=Georgia;fontSize=12;fontColor=#000000;labelBackgroundColor=none;spacing=0;spacingRight=0;expand=0;recursiveResize=0;" parent="DKlUDa0g7rmCu-vv5rfz-273" vertex="1">
          <mxGeometry x="420" y="740" width="20" height="20" as="geometry" />
        </mxCell>
        <mxCell id="DKlUDa0g7rmCu-vv5rfz-307" value="A" style="text;align=center;verticalAlign=bottom;resizable=1;points=[];autosize=0;strokeColor=none;fillColor=none;fontFamily=Georgia;fontSize=12;fontColor=#000000;labelBackgroundColor=none;spacing=0;spacingRight=0;expand=0;recursiveResize=0;" parent="DKlUDa0g7rmCu-vv5rfz-273" vertex="1">
          <mxGeometry x="420" y="680" width="20" height="20" as="geometry" />
        </mxCell>
        <mxCell id="DKlUDa0g7rmCu-vv5rfz-308" value="A" style="text;align=center;verticalAlign=bottom;resizable=1;points=[];autosize=0;strokeColor=none;fillColor=none;fontFamily=Georgia;fontSize=12;fontColor=#000000;labelBackgroundColor=none;spacing=0;spacingRight=0;expand=0;recursiveResize=0;" parent="DKlUDa0g7rmCu-vv5rfz-273" vertex="1">
          <mxGeometry x="220" y="680" width="20" height="20" as="geometry" />
        </mxCell>
        <mxCell id="DKlUDa0g7rmCu-vv5rfz-309" value="D" style="text;align=center;verticalAlign=bottom;resizable=1;points=[];autosize=0;strokeColor=none;fillColor=none;fontFamily=Georgia;fontSize=12;fontColor=#000000;labelBackgroundColor=none;spacing=0;spacingRight=0;expand=0;recursiveResize=0;" parent="DKlUDa0g7rmCu-vv5rfz-273" vertex="1">
          <mxGeometry x="20" y="880" width="20" height="20" as="geometry" />
        </mxCell>
        <mxCell id="DKlUDa0g7rmCu-vv5rfz-310" value="T" style="text;align=center;verticalAlign=bottom;resizable=1;points=[];autosize=0;strokeColor=none;fillColor=none;fontFamily=Georgia;fontSize=12;fontColor=#000000;labelBackgroundColor=none;spacing=0;spacingRight=0;expand=0;recursiveResize=0;" parent="DKlUDa0g7rmCu-vv5rfz-273" vertex="1">
          <mxGeometry x="20" y="540" width="20" height="20" as="geometry" />
        </mxCell>
        <mxCell id="DKlUDa0g7rmCu-vv5rfz-311" value="T" style="text;align=center;verticalAlign=bottom;resizable=1;points=[];autosize=0;strokeColor=none;fillColor=none;fontFamily=Georgia;fontSize=12;fontColor=#000000;labelBackgroundColor=none;spacing=0;spacingRight=0;expand=0;recursiveResize=0;" parent="DKlUDa0g7rmCu-vv5rfz-273" vertex="1">
          <mxGeometry x="620" y="940" width="20" height="20" as="geometry" />
        </mxCell>
        <mxCell id="DKlUDa0g7rmCu-vv5rfz-312" value="U" style="text;align=center;verticalAlign=bottom;resizable=1;points=[];autosize=0;strokeColor=none;fillColor=none;fontFamily=Georgia;fontSize=12;fontColor=#000000;labelBackgroundColor=none;spacing=0;spacingRight=0;expand=0;recursiveResize=0;" parent="DKlUDa0g7rmCu-vv5rfz-273" vertex="1">
          <mxGeometry x="1220" y="310" width="20" height="20" as="geometry" />
        </mxCell>
        <mxCell id="DKlUDa0g7rmCu-vv5rfz-313" value="U" style="text;align=center;verticalAlign=bottom;resizable=1;points=[];autosize=0;strokeColor=none;fillColor=none;fontFamily=Georgia;fontSize=12;fontColor=#000000;labelBackgroundColor=none;spacing=0;spacingRight=0;expand=0;recursiveResize=0;" parent="DKlUDa0g7rmCu-vv5rfz-273" vertex="1">
          <mxGeometry x="1020" y="940" width="20" height="20" as="geometry" />
        </mxCell>
        <mxCell id="DKlUDa0g7rmCu-vv5rfz-314" value="A/W" style="text;align=center;verticalAlign=bottom;resizable=1;points=[];autosize=0;strokeColor=none;fillColor=none;fontFamily=Georgia;fontSize=12;fontColor=#000000;labelBackgroundColor=none;spacing=0;spacingRight=0;expand=0;recursiveResize=0;spacingLeft=4;" parent="DKlUDa0g7rmCu-vv5rfz-273" vertex="1">
          <mxGeometry x="620" y="1080" width="20" height="20" as="geometry" />
        </mxCell>
        <mxCell id="DKlUDa0g7rmCu-vv5rfz-315" value="D/U" style="text;align=center;verticalAlign=bottom;resizable=1;points=[];autosize=0;strokeColor=none;fillColor=none;fontFamily=Georgia;fontSize=12;fontColor=#000000;labelBackgroundColor=none;spacing=0;spacingRight=0;expand=0;recursiveResize=0;spacingLeft=4;" parent="DKlUDa0g7rmCu-vv5rfz-273" vertex="1">
          <mxGeometry x="620" y="1140" width="20" height="20" as="geometry" />
        </mxCell>
        <mxCell id="-dR2T00Uhgw3VuPTZwKf-566" value="Transparency" style="locked=1;" parent="0" />
      </root>
    </mxGraphModel>
  </diagram>
</mxfile>
